<!-- Generator: Adobe Illustrator 19.2.1, SVG Export Plug-In  -->
<svg version="1.1"
	 xmlns="http://www.w3.org/2000/svg" xmlns:xlink="http://www.w3.org/1999/xlink" xmlns:a="http://ns.adobe.com/AdobeSVGViewerExtensions/3.0/"
	 x="0px" y="0px" width="219.3px" height="57.6px" viewBox="0 0 219.3 57.6" enable-background="new 0 0 219.3 57.6"
	 xml:space="preserve">
<defs>
</defs>
<g>
	<path fill="#FFFFFF" d="M28.8,0C12.9,0,0,12.9,0,28.8c0,15.9,12.9,28.8,28.8,28.8c15.9,0,28.8-12.9,28.8-28.8
		C57.6,12.9,44.7,0,28.8,0z M9.6,24.3c0.3-6.2,5.6-10.9,11.7-10.6c3.8,0.2,7,2.2,8.9,5.2l-3.8,2.4c-1.1-1.8-3-3-5.3-3.1
		c-3.7-0.2-6.8,2.6-7,6.3c-0.2,3.7,2.6,6.8,6.3,7c2.1,0.1,4-0.8,5.3-2.2l3.5,2.8c-2.1,2.5-5.4,4.1-9,3.9C14,35.7,9.3,30.5,9.6,24.3z
		 M36.3,43.9c-3.8-0.2-7-2.2-8.9-5.2l3.8-2.4c1.1,1.8,3,3,5.3,3.1c3.7,0.2,6.8-2.6,7-6.3s-2.6-6.8-6.3-7c-2.1-0.1-4,0.8-5.3,2.2
		l-3.5-2.8c2.1-2.5,5.4-4.1,9-3.9c6.2,0.3,10.9,5.6,10.6,11.7C47.7,39.5,42.4,44.2,36.3,43.9z"/>
</g>
<g>
	<g>
		<path fill="#FFFFFF" d="M71.1,34.5c0-0.7,0.4-1,1.1-1s1.1,0.4,1.1,1c0,0.7-0.4,1.1-1.1,1.1S71.1,35.2,71.1,34.5z M71.1,36.8
			c0-0.7,0.4-1,1.1-1s1.1,0.4,1.1,1c0,0.7-0.4,1.1-1.1,1.1S71.1,37.5,71.1,36.8z M71.1,39.1c0-0.7,0.4-1.1,1.1-1.1s1.1,0.4,1.1,1.1
			c0,0.7-0.4,1-1.1,1S71.1,39.8,71.1,39.1z M71.1,41.4c0-0.7,0.4-1.1,1.1-1.1s1.1,0.4,1.1,1.1s-0.4,1-1.1,1S71.1,42.1,71.1,41.4z
			 M71.1,43.7c0-0.7,0.4-1.1,1.1-1.1s1.1,0.4,1.1,1.1s-0.4,1.1-1.1,1.1S71.1,44.4,71.1,43.7z M71.1,46c0-0.7,0.4-1.1,1.1-1.1
			s1.1,0.4,1.1,1.1s-0.4,1.1-1.1,1.1S71.1,46.7,71.1,46z M71.1,48.3c0-0.7,0.4-1.1,1.1-1.1s1.1,0.4,1.1,1.1s-0.4,1-1.1,1
			S71.1,49,71.1,48.3z M71.1,50.5c0-0.7,0.4-1.1,1.1-1.1s1.1,0.4,1.1,1.1s-0.4,1.1-1.1,1.1S71.1,51.2,71.1,50.5z M71.1,52.8
			c0-0.7,0.4-1.1,1.1-1.1s1.1,0.4,1.1,1.1s-0.4,1.1-1.1,1.1S71.1,53.5,71.1,52.8z M73.4,32.2c0-0.7,0.4-1.1,1.1-1.1s1.1,0.4,1.1,1.1
			s-0.5,1.1-1.2,1.1S73.4,32.9,73.4,32.2z M73.4,34.5c0-0.7,0.4-1,1.1-1s1.1,0.4,1.1,1c0,0.7-0.4,1.1-1.1,1.1S73.4,35.2,73.4,34.5z
			 M73.4,36.8c0-0.7,0.4-1,1.1-1s1.1,0.4,1.1,1c0,0.7-0.4,1.1-1.1,1.1S73.4,37.5,73.4,36.8z M73.4,39.1c0-0.7,0.4-1.1,1.1-1.1
			s1.1,0.4,1.1,1.1c0,0.7-0.4,1-1.1,1S73.4,39.8,73.4,39.1z M73.4,41.4c0-0.7,0.4-1.1,1.1-1.1s1.1,0.4,1.1,1.1s-0.4,1-1.1,1
			S73.4,42.1,73.4,41.4z M73.4,43.7c0-0.7,0.4-1.1,1.1-1.1s1.1,0.4,1.1,1.1s-0.4,1.1-1.1,1.1S73.4,44.4,73.4,43.7z M73.4,46
			c0-0.7,0.4-1.1,1.1-1.1s1.1,0.4,1.1,1.1s-0.4,1.1-1.1,1.1S73.4,46.7,73.4,46z M73.4,48.3c0-0.7,0.4-1.1,1.1-1.1s1.1,0.4,1.1,1.1
			s-0.5,1-1.2,1S73.4,49,73.4,48.3z M73.4,50.5c0-0.7,0.4-1.1,1.1-1.1s1.1,0.4,1.1,1.1s-0.4,1.1-1.1,1.1S73.4,51.2,73.4,50.5z
			 M73.4,52.8c0-0.7,0.4-1.1,1.1-1.1s1.1,0.4,1.1,1.1s-0.4,1.1-1.1,1.1S73.4,53.5,73.4,52.8z M73.4,55.1c0-0.7,0.4-1.1,1.1-1.1
			s1.1,0.4,1.1,1.1s-0.4,1.1-1.1,1.1S73.4,55.8,73.4,55.1z M75.7,32.2c0-0.7,0.4-1.1,1.1-1.1s1.1,0.4,1.1,1.1s-0.5,1.1-1.2,1.1
			S75.7,32.9,75.7,32.2z M75.7,34.5c0-0.7,0.4-1,1.1-1s1.1,0.4,1.1,1c0,0.7-0.4,1.1-1.1,1.1S75.7,35.2,75.7,34.5z M75.7,52.8
			c0-0.7,0.4-1.1,1.1-1.1s1.1,0.4,1.1,1.1s-0.4,1.1-1.1,1.1S75.7,53.5,75.7,52.8z M75.7,55.1c0-0.7,0.4-1.1,1.1-1.1s1.1,0.4,1.1,1.1
			s-0.4,1.1-1.1,1.1S75.7,55.8,75.7,55.1z M78,32.2c0-0.7,0.4-1.1,1.1-1.1s1.1,0.4,1.1,1.1s-0.5,1.1-1.2,1.1S78,32.9,78,32.2z
			 M78,34.5c0-0.7,0.4-1,1.1-1s1.1,0.4,1.1,1c0,0.7-0.4,1.1-1.1,1.1S78,35.2,78,34.5z M78,52.8c0-0.7,0.4-1.1,1.1-1.1
			s1.1,0.4,1.1,1.1s-0.4,1.1-1.1,1.1S78,53.5,78,52.8z M78,55.1c0-0.7,0.4-1.1,1.1-1.1s1.1,0.4,1.1,1.1s-0.4,1.1-1.1,1.1
			S78,55.8,78,55.1z M80.3,32.2c0-0.7,0.3-1.1,1-1.1s1.1,0.4,1.1,1.1s-0.4,1.1-1.1,1.1S80.3,32.9,80.3,32.2z M80.3,34.5
			c0-0.7,0.3-1,1-1s1.1,0.4,1.1,1c0,0.7-0.4,1.1-1.1,1.1S80.3,35.2,80.3,34.5z M80.3,36.8c0-0.7,0.3-1,1-1s1.1,0.4,1.1,1
			c0,0.7-0.4,1.1-1.1,1.1S80.3,37.5,80.3,36.8z M80.3,39.1c0-0.7,0.3-1.1,1-1.1s1.1,0.4,1.1,1.1c0,0.7-0.4,1-1.1,1
			S80.3,39.8,80.3,39.1z M80.3,48.3c0-0.7,0.3-1.1,1-1.1s1.1,0.4,1.1,1.1s-0.4,1-1.1,1S80.3,49,80.3,48.3z M80.3,50.5
			c0-0.7,0.3-1.1,1-1.1s1.1,0.4,1.1,1.1s-0.4,1.1-1.1,1.1S80.3,51.2,80.3,50.5z M80.3,52.8c0-0.7,0.3-1.1,1-1.1s1.1,0.4,1.1,1.1
			s-0.4,1.1-1.1,1.1S80.3,53.5,80.3,52.8z M80.3,55.1c0-0.7,0.3-1.1,1-1.1s1.1,0.4,1.1,1.1s-0.4,1.1-1.1,1.1S80.3,55.8,80.3,55.1z
			 M82.6,34.5c0-0.7,0.4-1,1-1c0.7,0,1.1,0.4,1.1,1c0,0.7-0.4,1.1-1.1,1.1C82.9,35.6,82.6,35.2,82.6,34.5z M82.6,36.8
			c0-0.7,0.4-1,1-1c0.7,0,1.1,0.4,1.1,1c0,0.7-0.4,1.1-1.1,1.1C82.9,37.8,82.6,37.5,82.6,36.8z M82.6,39.1c0-0.7,0.4-1.1,1-1.1
			c0.7,0,1.1,0.4,1.1,1.1c0,0.7-0.4,1-1.1,1C82.9,40.1,82.6,39.8,82.6,39.1z M82.6,48.3c0-0.7,0.4-1.1,1-1.1c0.7,0,1.1,0.4,1.1,1.1
			s-0.4,1-1.1,1C82.9,49.3,82.6,49,82.6,48.3z M82.6,50.5c0-0.7,0.4-1.1,1-1.1c0.7,0,1.1,0.4,1.1,1.1s-0.4,1.1-1.1,1.1
			C82.9,51.6,82.6,51.2,82.6,50.5z M82.6,52.8c0-0.7,0.4-1.1,1-1.1c0.7,0,1.1,0.4,1.1,1.1s-0.4,1.1-1.1,1.1
			C82.9,53.9,82.6,53.5,82.6,52.8z"/>
		<path fill="#FFFFFF" d="M87.6,34.5c0-0.7,0.4-1,1.1-1s1.1,0.4,1.1,1c0,0.7-0.4,1.1-1.1,1.1S87.6,35.2,87.6,34.5z M87.6,36.8
			c0-0.7,0.4-1,1.1-1s1.1,0.4,1.1,1c0,0.7-0.4,1.1-1.1,1.1S87.6,37.5,87.6,36.8z M87.6,39.1c0-0.7,0.4-1.1,1.1-1.1s1.1,0.4,1.1,1.1
			c0,0.7-0.4,1-1.1,1S87.6,39.8,87.6,39.1z M87.6,41.4c0-0.7,0.4-1.1,1.1-1.1s1.1,0.4,1.1,1.1s-0.4,1-1.1,1S87.6,42.1,87.6,41.4z
			 M87.6,43.7c0-0.7,0.4-1.1,1.1-1.1s1.1,0.4,1.1,1.1s-0.4,1.1-1.1,1.1S87.6,44.4,87.6,43.7z M87.6,46c0-0.7,0.4-1.1,1.1-1.1
			s1.1,0.4,1.1,1.1s-0.4,1.1-1.1,1.1S87.6,46.7,87.6,46z M87.6,48.3c0-0.7,0.4-1.1,1.1-1.1s1.1,0.4,1.1,1.1s-0.4,1.1-1.1,1.1
			S87.6,49,87.6,48.3z M87.6,50.5c0-0.7,0.4-1.1,1.1-1.1s1.1,0.4,1.1,1.1s-0.4,1.1-1.1,1.1S87.6,51.2,87.6,50.5z M87.6,52.8
			c0-0.7,0.4-1.1,1.1-1.1s1.1,0.4,1.1,1.1s-0.4,1.1-1.1,1.1S87.6,53.5,87.6,52.8z M89.9,32.2c0-0.7,0.4-1.1,1.1-1.1s1.1,0.4,1.1,1.1
			s-0.4,1.1-1.1,1.1S89.9,32.9,89.9,32.2z M89.9,34.5c0-0.7,0.4-1,1.1-1s1.1,0.4,1.1,1c0,0.7-0.4,1.1-1.1,1.1S89.9,35.2,89.9,34.5z
			 M89.9,36.8c0-0.7,0.4-1,1.1-1s1.1,0.4,1.1,1c0,0.7-0.4,1.1-1.1,1.1S89.9,37.5,89.9,36.8z M89.9,39.1c0-0.7,0.4-1.1,1.1-1.1
			s1.1,0.4,1.1,1.1c0,0.7-0.4,1-1.1,1S89.9,39.8,89.9,39.1z M89.9,41.4c0-0.7,0.4-1.1,1.1-1.1s1.1,0.4,1.1,1.1s-0.4,1-1.1,1
			S89.9,42.1,89.9,41.4z M89.9,43.7c0-0.7,0.4-1.1,1.1-1.1s1.1,0.4,1.1,1.1s-0.4,1.1-1.1,1.1S89.9,44.4,89.9,43.7z M89.9,46
			c0-0.7,0.4-1.1,1.1-1.1s1.1,0.4,1.1,1.1s-0.4,1.1-1.1,1.1S89.9,46.7,89.9,46z M89.9,48.3c0-0.7,0.4-1.1,1.1-1.1s1.1,0.4,1.1,1.1
			s-0.4,1.1-1.1,1.1S89.9,49,89.9,48.3z M89.9,50.5c0-0.7,0.4-1.1,1.1-1.1s1.1,0.4,1.1,1.1s-0.4,1.1-1.1,1.1S89.9,51.2,89.9,50.5z
			 M89.9,52.8c0-0.7,0.4-1.1,1.1-1.1s1.1,0.4,1.1,1.1s-0.4,1.1-1.1,1.1S89.9,53.5,89.9,52.8z M89.9,55.1c0-0.7,0.4-1.1,1.1-1.1
			s1.1,0.4,1.1,1.1s-0.4,1.1-1.1,1.1S89.9,55.8,89.9,55.1z M92.2,32.2c0-0.7,0.4-1.1,1.1-1.1s1.1,0.4,1.1,1.1s-0.4,1.1-1.1,1.1
			S92.2,32.9,92.2,32.2z M92.2,34.5c0-0.7,0.4-1,1.1-1s1.1,0.4,1.1,1c0,0.7-0.4,1.1-1.1,1.1S92.2,35.2,92.2,34.5z M92.2,52.8
			c0-0.7,0.4-1.1,1.1-1.1s1.1,0.4,1.1,1.1s-0.4,1.1-1.1,1.1S92.2,53.5,92.2,52.8z M92.2,55.1c0-0.7,0.4-1.1,1.1-1.1s1.1,0.4,1.1,1.1
			s-0.4,1.1-1.1,1.1S92.2,55.8,92.2,55.1z M94.5,32.2c0-0.7,0.4-1.1,1.1-1.1s1.1,0.4,1.1,1.1s-0.4,1.1-1.1,1.1S94.5,32.9,94.5,32.2z
			 M94.5,34.5c0-0.7,0.4-1,1.1-1s1.1,0.4,1.1,1c0,0.7-0.4,1.1-1.1,1.1S94.5,35.2,94.5,34.5z M94.5,52.8c0-0.7,0.4-1.1,1.1-1.1
			s1.1,0.4,1.1,1.1s-0.4,1.1-1.1,1.1S94.5,53.5,94.5,52.8z M94.5,55.1c0-0.7,0.4-1.1,1.1-1.1s1.1,0.4,1.1,1.1s-0.4,1.1-1.1,1.1
			S94.5,55.8,94.5,55.1z M96.8,32.2c0-0.7,0.3-1.1,1-1.1s1.1,0.4,1.1,1.1s-0.4,1.1-1.1,1.1S96.8,32.9,96.8,32.2z M96.8,34.5
			c0-0.7,0.3-1,1-1s1.1,0.4,1.1,1c0,0.7-0.4,1.1-1.1,1.1S96.8,35.2,96.8,34.5z M96.8,36.8c0-0.7,0.3-1,1-1s1.1,0.4,1.1,1
			c0,0.7-0.4,1.1-1.1,1.1S96.8,37.5,96.8,36.8z M96.8,39.1c0-0.7,0.3-1.1,1-1.1s1.1,0.4,1.1,1.1c0,0.7-0.4,1-1.1,1
			S96.8,39.8,96.8,39.1z M96.8,41.4c0-0.7,0.3-1.1,1-1.1s1.1,0.4,1.1,1.1s-0.4,1-1.1,1S96.8,42.1,96.8,41.4z M96.8,43.7
			c0-0.7,0.3-1.1,1-1.1s1.1,0.4,1.1,1.1s-0.4,1.1-1.1,1.1S96.8,44.4,96.8,43.7z M96.8,46c0-0.7,0.3-1.1,1-1.1s1.1,0.4,1.1,1.1
			s-0.4,1.1-1.1,1.1S96.8,46.7,96.8,46z M96.8,48.3c0-0.7,0.3-1.1,1-1.1s1.1,0.4,1.1,1.1s-0.4,1.1-1.1,1.1S96.8,49,96.8,48.3z
			 M96.8,50.5c0-0.7,0.3-1.1,1-1.1s1.1,0.4,1.1,1.1s-0.4,1.1-1.1,1.1S96.8,51.2,96.8,50.5z M96.8,52.8c0-0.7,0.3-1.1,1-1.1
			s1.1,0.4,1.1,1.1s-0.4,1.1-1.1,1.1S96.8,53.5,96.8,52.8z M96.8,55.1c0-0.7,0.3-1.1,1-1.1s1.1,0.4,1.1,1.1s-0.4,1.1-1.1,1.1
			S96.8,55.8,96.8,55.1z M99,34.5c0-0.7,0.4-1,1-1c0.7,0,1.1,0.4,1.1,1c0,0.7-0.4,1.1-1.1,1.1C99.4,35.6,99,35.2,99,34.5z M99,36.8
			c0-0.7,0.4-1,1-1c0.7,0,1.1,0.4,1.1,1c0,0.7-0.4,1.1-1.1,1.1C99.4,37.8,99,37.5,99,36.8z M99,39.1c0-0.7,0.4-1.1,1-1.1
			c0.7,0,1.1,0.4,1.1,1.1c0,0.7-0.4,1-1.1,1C99.4,40.1,99,39.8,99,39.1z M99,41.4c0-0.7,0.4-1.1,1-1.1c0.7,0,1.1,0.4,1.1,1.1
			s-0.4,1-1.1,1C99.4,42.4,99,42.1,99,41.4z M99,43.7c0-0.7,0.4-1.1,1-1.1c0.7,0,1.1,0.4,1.1,1.1s-0.4,1.1-1.1,1.1
			C99.4,44.7,99,44.4,99,43.7z M99,46c0-0.7,0.4-1.1,1-1.1c0.7,0,1.1,0.4,1.1,1.1s-0.4,1.1-1.1,1.1C99.4,47,99,46.7,99,46z M99,48.3
			c0-0.7,0.4-1.1,1-1.1c0.7,0,1.1,0.4,1.1,1.1s-0.4,1.1-1.1,1.1C99.4,49.3,99,49,99,48.3z M99,50.5c0-0.7,0.4-1.1,1-1.1
			c0.7,0,1.1,0.4,1.1,1.1s-0.4,1.1-1.1,1.1C99.4,51.6,99,51.2,99,50.5z M99,52.8c0-0.7,0.4-1.1,1-1.1c0.7,0,1.1,0.4,1.1,1.1
			s-0.4,1.1-1.1,1.1C99.4,53.9,99,53.5,99,52.8z"/>
		<path fill="#FFFFFF" d="M104.1,32.2c0-0.7,0.4-1.1,1.1-1.1s1.1,0.4,1.1,1.1s-0.4,1.1-1.1,1.1S104.1,32.9,104.1,32.2z M104.1,34.5
			c0-0.7,0.4-1,1.1-1s1.1,0.4,1.1,1c0,0.7-0.4,1.1-1.1,1.1S104.1,35.2,104.1,34.5z M104.1,36.8c0-0.7,0.4-1,1.1-1s1.1,0.4,1.1,1
			c0,0.7-0.4,1.1-1.1,1.1S104.1,37.5,104.1,36.8z M104.1,39.1c0-0.7,0.4-1.1,1.1-1.1s1.1,0.4,1.1,1.1c0,0.7-0.4,1-1.1,1
			S104.1,39.8,104.1,39.1z M104.1,41.4c0-0.7,0.4-1.1,1.1-1.1s1.1,0.4,1.1,1.1s-0.4,1-1.1,1S104.1,42.1,104.1,41.4z M104.1,43.7
			c0-0.7,0.4-1.1,1.1-1.1s1.1,0.4,1.1,1.1s-0.4,1.1-1.1,1.1S104.1,44.4,104.1,43.7z M104.1,46c0-0.7,0.4-1.1,1.1-1.1
			s1.1,0.4,1.1,1.1s-0.4,1.1-1.1,1.1S104.1,46.7,104.1,46z M104.1,48.3c0-0.7,0.4-1.1,1.1-1.1s1.1,0.4,1.1,1.1s-0.4,1.1-1.1,1.1
			S104.1,49,104.1,48.3z M104.1,50.5c0-0.7,0.4-1.1,1.1-1.1s1.1,0.4,1.1,1.1s-0.4,1.1-1.1,1.1S104.1,51.2,104.1,50.5z M104.1,52.8
			c0-0.7,0.4-1.1,1.1-1.1s1.1,0.4,1.1,1.1s-0.4,1.1-1.1,1.1S104.1,53.5,104.1,52.8z M104.1,55.1c0-0.7,0.4-1.1,1.1-1.1
			s1.1,0.4,1.1,1.1s-0.4,1.1-1.1,1.1S104.1,55.8,104.1,55.1z M106.4,32.2c0-0.7,0.4-1.1,1.1-1.1s1.1,0.4,1.1,1.1s-0.4,1.1-1.1,1.1
			S106.4,32.9,106.4,32.2z M106.4,34.5c0-0.7,0.4-1,1.1-1s1.1,0.4,1.1,1c0,0.7-0.4,1.1-1.1,1.1S106.4,35.2,106.4,34.5z M106.4,36.8
			c0-0.7,0.4-1,1.1-1s1.1,0.4,1.1,1c0,0.7-0.4,1.1-1.1,1.1S106.4,37.5,106.4,36.8z M106.4,39.1c0-0.7,0.4-1.1,1.1-1.1
			s1.1,0.4,1.1,1.1c0,0.7-0.4,1-1.1,1S106.4,39.8,106.4,39.1z M106.4,41.4c0-0.7,0.4-1.1,1.1-1.1s1.1,0.4,1.1,1.1s-0.4,1-1.1,1
			S106.4,42.1,106.4,41.4z M106.4,43.7c0-0.7,0.4-1.1,1.1-1.1s1.1,0.4,1.1,1.1s-0.4,1.1-1.1,1.1S106.4,44.4,106.4,43.7z M106.4,46
			c0-0.7,0.4-1.1,1.1-1.1s1.1,0.4,1.1,1.1s-0.4,1.1-1.1,1.1S106.4,46.7,106.4,46z M106.4,48.3c0-0.7,0.4-1.1,1.1-1.1
			s1.1,0.4,1.1,1.1s-0.4,1.1-1.1,1.1S106.4,49,106.4,48.3z M106.4,50.5c0-0.7,0.4-1.1,1.1-1.1s1.1,0.4,1.1,1.1s-0.4,1.1-1.1,1.1
			S106.4,51.2,106.4,50.5z M106.4,52.8c0-0.7,0.4-1.1,1.1-1.1s1.1,0.4,1.1,1.1s-0.4,1.1-1.1,1.1S106.4,53.5,106.4,52.8z M106.4,55.1
			c0-0.7,0.4-1.1,1.1-1.1s1.1,0.4,1.1,1.1s-0.4,1.1-1.1,1.1S106.4,55.8,106.4,55.1z M108.7,52.8c0-0.7,0.4-1.1,1.1-1.1
			s1.1,0.4,1.1,1.1s-0.4,1.1-1.1,1.1S108.7,53.5,108.7,52.8z M108.7,55.1c0-0.7,0.4-1.1,1.1-1.1s1.1,0.4,1.1,1.1s-0.4,1.1-1.1,1.1
			S108.7,55.8,108.7,55.1z M110.9,52.8c0-0.7,0.4-1.1,1.1-1.1s1.1,0.4,1.1,1.1s-0.4,1.1-1.1,1.1S110.9,53.5,110.9,52.8z M110.9,55.1
			c0-0.7,0.4-1.1,1.1-1.1s1.1,0.4,1.1,1.1s-0.4,1.1-1.1,1.1S110.9,55.8,110.9,55.1z M113.2,52.8c0-0.7,0.3-1.1,1-1.1
			s1.1,0.4,1.1,1.1s-0.4,1.1-1.1,1.1S113.2,53.5,113.2,52.8z M113.2,55.1c0-0.7,0.3-1.1,1-1.1s1.1,0.4,1.1,1.1s-0.4,1.1-1.1,1.1
			S113.2,55.8,113.2,55.1z"/>
		<path fill="#FFFFFF" d="M118.3,32.2c0-0.7,0.4-1.1,1.1-1.1c0.7,0,1.1,0.4,1.1,1.1s-0.4,1.1-1.1,1.1
			C118.6,33.3,118.3,32.9,118.3,32.2z M118.3,34.5c0-0.7,0.4-1,1.1-1c0.7,0,1.1,0.4,1.1,1c0,0.7-0.4,1.1-1.1,1.1
			C118.6,35.6,118.3,35.2,118.3,34.5z M118.3,36.8c0-0.7,0.4-1,1.1-1c0.7,0,1.1,0.4,1.1,1c0,0.7-0.4,1.1-1.1,1.1
			C118.6,37.8,118.3,37.5,118.3,36.8z M118.3,39.1c0-0.7,0.4-1.1,1.1-1.1c0.7,0,1.1,0.4,1.1,1.1c0,0.7-0.4,1-1.1,1
			C118.6,40.1,118.3,39.8,118.3,39.1z M118.3,41.4c0-0.7,0.4-1.1,1.1-1.1c0.7,0,1.1,0.4,1.1,1.1s-0.4,1-1.1,1
			C118.6,42.4,118.3,42.1,118.3,41.4z M118.3,43.7c0-0.7,0.4-1.1,1.1-1.1c0.7,0,1.1,0.4,1.1,1.1s-0.4,1.1-1.1,1.1
			C118.6,44.7,118.3,44.4,118.3,43.7z M118.3,46c0-0.7,0.4-1.1,1.1-1.1c0.7,0,1.1,0.4,1.1,1.1s-0.4,1.1-1.1,1.1
			C118.6,47,118.3,46.7,118.3,46z M118.3,48.3c0-0.7,0.4-1.1,1.1-1.1c0.7,0,1.1,0.4,1.1,1.1s-0.4,1.1-1.1,1.1
			C118.6,49.3,118.3,49,118.3,48.3z M118.3,50.5c0-0.7,0.4-1.1,1.1-1.1c0.7,0,1.1,0.4,1.1,1.1s-0.4,1.1-1.1,1.1
			C118.6,51.6,118.3,51.2,118.3,50.5z M118.3,52.8c0-0.7,0.4-1.1,1.1-1.1c0.7,0,1.1,0.4,1.1,1.1s-0.4,1.1-1.1,1.1
			C118.6,53.9,118.3,53.5,118.3,52.8z M118.3,55.1c0-0.7,0.4-1.1,1.1-1.1c0.7,0,1.1,0.4,1.1,1.1s-0.4,1.1-1.1,1.1
			C118.6,56.2,118.3,55.8,118.3,55.1z M120.6,32.2c0-0.7,0.4-1.1,1.1-1.1c0.7,0,1.1,0.4,1.1,1.1s-0.4,1.1-1.1,1.1
			C120.9,33.3,120.6,32.9,120.6,32.2z M120.6,34.5c0-0.7,0.4-1,1.1-1c0.7,0,1.1,0.4,1.1,1c0,0.7-0.4,1.1-1.1,1.1
			C120.9,35.6,120.6,35.2,120.6,34.5z M120.6,36.8c0-0.7,0.4-1,1.1-1c0.7,0,1.1,0.4,1.1,1c0,0.7-0.4,1.1-1.1,1.1
			C120.9,37.8,120.6,37.5,120.6,36.8z M120.6,39.1c0-0.7,0.4-1.1,1.1-1.1c0.7,0,1.1,0.4,1.1,1.1c0,0.7-0.4,1-1.1,1
			C120.9,40.1,120.6,39.8,120.6,39.1z M120.6,41.4c0-0.7,0.4-1.1,1.1-1.1c0.7,0,1.1,0.4,1.1,1.1s-0.4,1-1.1,1
			C120.9,42.4,120.6,42.1,120.6,41.4z M120.6,43.7c0-0.7,0.4-1.1,1.1-1.1c0.7,0,1.1,0.4,1.1,1.1s-0.4,1.1-1.1,1.1
			C120.9,44.7,120.6,44.4,120.6,43.7z M120.6,46c0-0.7,0.4-1.1,1.1-1.1c0.7,0,1.1,0.4,1.1,1.1s-0.4,1.1-1.1,1.1
			C120.9,47,120.6,46.7,120.6,46z M120.6,48.3c0-0.7,0.4-1.1,1.1-1.1c0.7,0,1.1,0.4,1.1,1.1s-0.4,1.1-1.1,1.1
			C120.9,49.3,120.6,49,120.6,48.3z M120.6,50.5c0-0.7,0.4-1.1,1.1-1.1c0.7,0,1.1,0.4,1.1,1.1s-0.4,1.1-1.1,1.1
			C120.9,51.6,120.6,51.2,120.6,50.5z M120.6,52.8c0-0.7,0.4-1.1,1.1-1.1c0.7,0,1.1,0.4,1.1,1.1s-0.4,1.1-1.1,1.1
			C120.9,53.9,120.6,53.5,120.6,52.8z M120.6,55.1c0-0.7,0.4-1.1,1.1-1.1c0.7,0,1.1,0.4,1.1,1.1s-0.4,1.1-1.1,1.1
			C120.9,56.2,120.6,55.8,120.6,55.1z M122.8,32.2c0-0.7,0.4-1.1,1.1-1.1c0.7,0,1.1,0.4,1.1,1.1s-0.4,1.1-1.1,1.1
			S122.8,32.9,122.8,32.2z M122.8,34.5c0-0.7,0.4-1,1.1-1c0.7,0,1.1,0.4,1.1,1c0,0.7-0.4,1.1-1.1,1.1S122.8,35.2,122.8,34.5z
			 M122.8,43.7c0-0.7,0.4-1.1,1.1-1.1c0.7,0,1.1,0.4,1.1,1.1s-0.4,1.1-1.1,1.1C123.2,44.7,122.8,44.4,122.8,43.7z M122.8,46
			c0-0.7,0.4-1.1,1.1-1.1c0.7,0,1.1,0.4,1.1,1.1s-0.4,1.1-1.1,1.1C123.2,47,122.8,46.7,122.8,46z M122.8,52.8c0-0.7,0.4-1.1,1.1-1.1
			c0.7,0,1.1,0.4,1.1,1.1s-0.4,1.1-1.1,1.1S122.8,53.5,122.8,52.8z M122.8,55.1c0-0.7,0.4-1.1,1.1-1.1c0.7,0,1.1,0.4,1.1,1.1
			s-0.4,1.1-1.1,1.1C123.2,56.2,122.8,55.8,122.8,55.1z M125.1,32.2c0-0.7,0.4-1.1,1.1-1.1c0.7,0,1.1,0.4,1.1,1.1s-0.4,1.1-1.1,1.1
			C125.5,33.3,125.1,32.9,125.1,32.2z M125.1,34.5c0-0.7,0.4-1,1.1-1c0.7,0,1.1,0.4,1.1,1c0,0.7-0.4,1.1-1.1,1.1
			C125.5,35.6,125.1,35.2,125.1,34.5z M125.1,43.7c0-0.7,0.4-1.1,1.1-1.1c0.7,0,1.1,0.4,1.1,1.1s-0.4,1.1-1.1,1.1
			C125.5,44.7,125.1,44.4,125.1,43.7z M125.1,46c0-0.7,0.4-1.1,1.1-1.1c0.7,0,1.1,0.4,1.1,1.1s-0.4,1.1-1.1,1.1
			C125.5,47,125.1,46.7,125.1,46z M125.1,52.8c0-0.7,0.4-1.1,1.1-1.1c0.7,0,1.1,0.4,1.1,1.1s-0.4,1.1-1.1,1.1
			C125.5,53.9,125.1,53.5,125.1,52.8z M125.1,55.1c0-0.7,0.4-1.1,1.1-1.1c0.7,0,1.1,0.4,1.1,1.1s-0.4,1.1-1.1,1.1
			C125.5,56.2,125.1,55.8,125.1,55.1z M127.4,32.2c0-0.7,0.3-1.1,1-1.1s1.1,0.4,1.1,1.1s-0.4,1.1-1.1,1.1
			C127.8,33.3,127.4,32.9,127.4,32.2z M127.4,34.5c0-0.7,0.3-1,1-1s1.1,0.4,1.1,1c0,0.7-0.4,1.1-1.1,1.1
			C127.8,35.6,127.4,35.2,127.4,34.5z M127.4,43.7c0-0.7,0.3-1.1,1-1.1s1.1,0.4,1.1,1.1s-0.4,1.1-1.1,1.1
			C127.8,44.7,127.4,44.4,127.4,43.7z M127.4,46c0-0.7,0.3-1.1,1-1.1s1.1,0.4,1.1,1.1s-0.4,1.1-1.1,1.1
			C127.8,47,127.4,46.7,127.4,46z M127.4,52.8c0-0.7,0.3-1.1,1-1.1s1.1,0.4,1.1,1.1s-0.4,1.1-1.1,1.1
			C127.8,53.9,127.4,53.5,127.4,52.8z M127.4,55.1c0-0.7,0.3-1.1,1-1.1s1.1,0.4,1.1,1.1s-0.4,1.1-1.1,1.1
			C127.8,56.2,127.4,55.8,127.4,55.1z"/>
		<path fill="#FFFFFF" d="M132.5,34.5c0-0.7,0.4-1,1.1-1s1.1,0.4,1.1,1c0,0.7-0.4,1.1-1.1,1.1S132.5,35.2,132.5,34.5z M132.5,36.8
			c0-0.7,0.4-1,1.1-1s1.1,0.4,1.1,1c0,0.7-0.4,1.1-1.1,1.1S132.5,37.5,132.5,36.8z M132.5,39.1c0-0.7,0.4-1.1,1.1-1.1
			s1.1,0.4,1.1,1.1c0,0.7-0.4,1-1.1,1S132.5,39.8,132.5,39.1z M132.5,41.4c0-0.7,0.4-1.1,1.1-1.1s1.1,0.4,1.1,1.1s-0.4,1-1.1,1
			S132.5,42.1,132.5,41.4z M132.5,43.7c0-0.7,0.4-1.1,1.1-1.1s1.1,0.4,1.1,1.1s-0.4,1.1-1.1,1.1S132.5,44.4,132.5,43.7z M132.5,46
			c0-0.7,0.4-1.1,1.1-1.1s1.1,0.4,1.1,1.1s-0.4,1.1-1.1,1.1S132.5,46.7,132.5,46z M132.5,48.3c0-0.7,0.4-1.1,1.1-1.1
			s1.1,0.4,1.1,1.1s-0.4,1.1-1.1,1.1S132.5,49,132.5,48.3z M132.5,50.5c0-0.7,0.4-1.1,1.1-1.1s1.1,0.4,1.1,1.1s-0.4,1.1-1.1,1.1
			S132.5,51.2,132.5,50.5z M132.5,52.8c0-0.7,0.4-1.1,1.1-1.1s1.1,0.4,1.1,1.1s-0.4,1.1-1.1,1.1S132.5,53.5,132.5,52.8z M134.8,32.2
			c0-0.7,0.4-1.1,1.1-1.1c0.7,0,1.1,0.4,1.1,1.1s-0.4,1.1-1.1,1.1C135.1,33.3,134.8,32.9,134.8,32.2z M134.8,34.5c0-0.7,0.4-1,1.1-1
			c0.7,0,1.1,0.4,1.1,1c0,0.7-0.4,1.1-1.1,1.1C135.1,35.6,134.8,35.2,134.8,34.5z M134.8,36.8c0-0.7,0.4-1,1.1-1
			c0.7,0,1.1,0.4,1.1,1c0,0.7-0.4,1.1-1.1,1.1C135.1,37.8,134.8,37.5,134.8,36.8z M134.8,39.1c0-0.7,0.4-1.1,1.1-1.1
			c0.7,0,1.1,0.4,1.1,1.1c0,0.7-0.4,1-1.1,1C135.1,40.1,134.8,39.8,134.8,39.1z M134.8,41.4c0-0.7,0.4-1.1,1.1-1.1
			c0.7,0,1.1,0.4,1.1,1.1s-0.4,1-1.1,1C135.1,42.4,134.8,42.1,134.8,41.4z M134.8,43.7c0-0.7,0.4-1.1,1.1-1.1c0.7,0,1.1,0.4,1.1,1.1
			s-0.4,1.1-1.1,1.1C135.1,44.7,134.8,44.4,134.8,43.7z M134.8,46c0-0.7,0.4-1.1,1.1-1.1c0.7,0,1.1,0.4,1.1,1.1s-0.4,1.1-1.1,1.1
			C135.1,47,134.8,46.7,134.8,46z M134.8,48.3c0-0.7,0.4-1.1,1.1-1.1c0.7,0,1.1,0.4,1.1,1.1s-0.4,1.1-1.1,1.1
			C135.1,49.3,134.8,49,134.8,48.3z M134.8,50.5c0-0.7,0.4-1.1,1.1-1.1c0.7,0,1.1,0.4,1.1,1.1s-0.4,1.1-1.1,1.1
			C135.1,51.6,134.8,51.2,134.8,50.5z M134.8,52.8c0-0.7,0.4-1.1,1.1-1.1c0.7,0,1.1,0.4,1.1,1.1s-0.4,1.1-1.1,1.1
			C135.1,53.9,134.8,53.5,134.8,52.8z M134.8,55.1c0-0.7,0.4-1.1,1.1-1.1c0.7,0,1.1,0.4,1.1,1.1s-0.4,1.1-1.1,1.1
			C135.1,56.2,134.8,55.8,134.8,55.1z M137.1,32.2c0-0.7,0.4-1.1,1.1-1.1c0.7,0,1.1,0.4,1.1,1.1s-0.4,1.1-1.1,1.1
			C137.4,33.3,137.1,32.9,137.1,32.2z M137.1,34.5c0-0.7,0.4-1,1.1-1c0.7,0,1.1,0.4,1.1,1c0,0.7-0.4,1.1-1.1,1.1
			C137.4,35.6,137.1,35.2,137.1,34.5z M137.1,52.8c0-0.7,0.4-1.1,1.1-1.1c0.7,0,1.1,0.4,1.1,1.1s-0.4,1.1-1.1,1.1
			C137.4,53.9,137.1,53.5,137.1,52.8z M137.1,55.1c0-0.7,0.4-1.1,1.1-1.1c0.7,0,1.1,0.4,1.1,1.1s-0.4,1.1-1.1,1.1
			C137.4,56.2,137.1,55.8,137.1,55.1z M139.4,32.2c0-0.7,0.4-1.1,1.1-1.1c0.7,0,1.1,0.4,1.1,1.1s-0.4,1.1-1.1,1.1
			C139.7,33.3,139.4,32.9,139.4,32.2z M139.4,34.5c0-0.7,0.4-1,1.1-1c0.7,0,1.1,0.4,1.1,1c0,0.7-0.4,1.1-1.1,1.1
			C139.7,35.6,139.4,35.2,139.4,34.5z M139.4,52.8c0-0.7,0.4-1.1,1.1-1.1c0.7,0,1.1,0.4,1.1,1.1s-0.4,1.1-1.1,1.1
			C139.7,53.9,139.4,53.5,139.4,52.8z M139.4,55.1c0-0.7,0.4-1.1,1.1-1.1c0.7,0,1.1,0.4,1.1,1.1s-0.4,1.1-1.1,1.1
			C139.7,56.2,139.4,55.8,139.4,55.1z M141.6,32.2c0-0.7,0.3-1.1,1-1.1s1.1,0.4,1.1,1.1s-0.3,1.1-1,1.1S141.6,32.9,141.6,32.2z
			 M141.6,34.5c0-0.7,0.3-1,1-1s1.1,0.4,1.1,1c0,0.7-0.4,1.1-1.1,1.1C142,35.6,141.6,35.2,141.6,34.5z M141.6,36.8c0-0.7,0.3-1,1-1
			s1.1,0.4,1.1,1c0,0.7-0.4,1.1-1.1,1.1C142,37.8,141.6,37.5,141.6,36.8z M141.6,39.1c0-0.7,0.3-1.1,1-1.1s1.1,0.4,1.1,1.1
			c0,0.7-0.4,1-1.1,1C142,40.1,141.6,39.8,141.6,39.1z M141.6,48.3c0-0.7,0.3-1.1,1-1.1s1.1,0.4,1.1,1.1s-0.3,1-1,1
			S141.6,49,141.6,48.3z M141.6,50.5c0-0.7,0.3-1.1,1-1.1s1.1,0.4,1.1,1.1s-0.4,1.1-1.1,1.1C142,51.6,141.6,51.2,141.6,50.5z
			 M141.6,52.8c0-0.7,0.3-1.1,1-1.1s1.1,0.4,1.1,1.1s-0.4,1.1-1.1,1.1C142,53.9,141.6,53.5,141.6,52.8z M141.6,55.1
			c0-0.7,0.3-1.1,1-1.1s1.1,0.4,1.1,1.1s-0.4,1.1-1.1,1.1C142,56.2,141.6,55.8,141.6,55.1z M143.9,34.5c0-0.7,0.4-1,1-1
			c0.7,0,1.1,0.4,1.1,1c0,0.7-0.4,1.1-1.1,1.1C144.3,35.6,143.9,35.2,143.9,34.5z M143.9,36.8c0-0.7,0.4-1,1-1c0.7,0,1.1,0.4,1.1,1
			c0,0.7-0.4,1.1-1.1,1.1C144.3,37.8,143.9,37.5,143.9,36.8z M143.9,39.1c0-0.7,0.4-1.1,1-1.1c0.7,0,1.1,0.4,1.1,1.1
			c0,0.7-0.4,1-1.1,1C144.3,40.1,143.9,39.8,143.9,39.1z M143.9,48.3c0-0.7,0.4-1.1,1-1.1c0.7,0,1.1,0.4,1.1,1.1s-0.3,1-1,1
			S143.9,49,143.9,48.3z M143.9,50.5c0-0.7,0.4-1.1,1-1.1c0.7,0,1.1,0.4,1.1,1.1s-0.4,1.1-1.1,1.1C144.3,51.6,143.9,51.2,143.9,50.5
			z M143.9,52.8c0-0.7,0.4-1.1,1-1.1c0.7,0,1.1,0.4,1.1,1.1s-0.4,1.1-1.1,1.1C144.3,53.9,143.9,53.5,143.9,52.8z"/>
		<path fill="#FFFFFF" d="M149,32.2c0-0.7,0.4-1.1,1.1-1.1c0.7,0,1.1,0.4,1.1,1.1s-0.5,1.1-1.2,1.1S149,32.9,149,32.2z M149,34.5
			c0-0.7,0.4-1,1.1-1c0.7,0,1.1,0.4,1.1,1c0,0.7-0.4,1.1-1.1,1.1C149.3,35.6,149,35.2,149,34.5z M151.3,32.2c0-0.7,0.4-1.1,1.1-1.1
			c0.7,0,1.1,0.4,1.1,1.1s-0.4,1.1-1.1,1.1C151.6,33.3,151.3,32.9,151.3,32.2z M151.3,34.5c0-0.7,0.4-1,1.1-1c0.7,0,1.1,0.4,1.1,1
			c0,0.7-0.4,1.1-1.1,1.1C151.6,35.6,151.3,35.2,151.3,34.5z M153.5,32.2c0-0.7,0.4-1.1,1.1-1.1c0.7,0,1.1,0.4,1.1,1.1
			s-0.4,1.1-1.1,1.1S153.5,32.9,153.5,32.2z M153.5,34.5c0-0.7,0.4-1,1.1-1c0.7,0,1.1,0.4,1.1,1c0,0.7-0.4,1.1-1.1,1.1
			S153.5,35.2,153.5,34.5z M153.5,36.8c0-0.7,0.4-1,1.1-1c0.7,0,1.1,0.4,1.1,1c0,0.7-0.4,1.1-1.1,1.1
			C153.9,37.8,153.5,37.5,153.5,36.8z M153.5,39.1c0-0.7,0.4-1.1,1.1-1.1c0.7,0,1.1,0.4,1.1,1.1c0,0.7-0.4,1-1.1,1
			S153.5,39.8,153.5,39.1z M153.5,41.4c0-0.7,0.4-1.1,1.1-1.1c0.7,0,1.1,0.4,1.1,1.1s-0.4,1-1.1,1S153.5,42.1,153.5,41.4z
			 M153.5,43.7c0-0.7,0.4-1.1,1.1-1.1c0.7,0,1.1,0.4,1.1,1.1s-0.4,1.1-1.1,1.1C153.9,44.7,153.5,44.4,153.5,43.7z M153.5,46
			c0-0.7,0.4-1.1,1.1-1.1c0.7,0,1.1,0.4,1.1,1.1s-0.4,1.1-1.1,1.1C153.9,47,153.5,46.7,153.5,46z M153.5,48.3c0-0.7,0.4-1.1,1.1-1.1
			c0.7,0,1.1,0.4,1.1,1.1s-0.4,1.1-1.1,1.1C153.9,49.3,153.5,49,153.5,48.3z M153.5,50.5c0-0.7,0.4-1.1,1.1-1.1
			c0.7,0,1.1,0.4,1.1,1.1s-0.4,1.1-1.1,1.1S153.5,51.2,153.5,50.5z M153.5,52.8c0-0.7,0.4-1.1,1.1-1.1c0.7,0,1.1,0.4,1.1,1.1
			s-0.4,1.1-1.1,1.1S153.5,53.5,153.5,52.8z M153.5,55.1c0-0.7,0.4-1.1,1.1-1.1c0.7,0,1.1,0.4,1.1,1.1s-0.4,1.1-1.1,1.1
			C153.9,56.2,153.5,55.8,153.5,55.1z M155.8,32.2c0-0.7,0.4-1.1,1.1-1.1c0.7,0,1.1,0.4,1.1,1.1s-0.4,1.1-1.1,1.1
			S155.8,32.9,155.8,32.2z M155.8,34.5c0-0.7,0.4-1,1.1-1c0.7,0,1.1,0.4,1.1,1c0,0.7-0.4,1.1-1.1,1.1S155.8,35.2,155.8,34.5z
			 M155.8,36.8c0-0.7,0.4-1,1.1-1c0.7,0,1.1,0.4,1.1,1c0,0.7-0.4,1.1-1.1,1.1C156.2,37.8,155.8,37.5,155.8,36.8z M155.8,39.1
			c0-0.7,0.4-1.1,1.1-1.1c0.7,0,1.1,0.4,1.1,1.1c0,0.7-0.4,1-1.1,1S155.8,39.8,155.8,39.1z M155.8,41.4c0-0.7,0.4-1.1,1.1-1.1
			c0.7,0,1.1,0.4,1.1,1.1s-0.4,1-1.1,1S155.8,42.1,155.8,41.4z M155.8,43.7c0-0.7,0.4-1.1,1.1-1.1c0.7,0,1.1,0.4,1.1,1.1
			s-0.4,1.1-1.1,1.1C156.2,44.7,155.8,44.4,155.8,43.7z M155.8,46c0-0.7,0.4-1.1,1.1-1.1c0.7,0,1.1,0.4,1.1,1.1s-0.4,1.1-1.1,1.1
			C156.2,47,155.8,46.7,155.8,46z M155.8,48.3c0-0.7,0.4-1.1,1.1-1.1c0.7,0,1.1,0.4,1.1,1.1s-0.4,1.1-1.1,1.1
			C156.2,49.3,155.8,49,155.8,48.3z M155.8,50.5c0-0.7,0.4-1.1,1.1-1.1c0.7,0,1.1,0.4,1.1,1.1s-0.4,1.1-1.1,1.1
			S155.8,51.2,155.8,50.5z M155.8,52.8c0-0.7,0.4-1.1,1.1-1.1c0.7,0,1.1,0.4,1.1,1.1s-0.4,1.1-1.1,1.1S155.8,53.5,155.8,52.8z
			 M155.8,55.1c0-0.7,0.4-1.1,1.1-1.1c0.7,0,1.1,0.4,1.1,1.1s-0.4,1.1-1.1,1.1C156.2,56.2,155.8,55.8,155.8,55.1z M158.1,32.2
			c0-0.7,0.3-1.1,1-1.1s1.1,0.4,1.1,1.1s-0.4,1.1-1.1,1.1C158.5,33.3,158.1,32.9,158.1,32.2z M158.1,34.5c0-0.7,0.3-1,1-1
			s1.1,0.4,1.1,1c0,0.7-0.4,1.1-1.1,1.1C158.5,35.6,158.1,35.2,158.1,34.5z M160.4,32.2c0-0.7,0.4-1.1,1-1.1c0.7,0,1.1,0.4,1.1,1.1
			s-0.4,1.1-1.1,1.1C160.8,33.3,160.4,32.9,160.4,32.2z M160.4,34.5c0-0.7,0.4-1,1-1c0.7,0,1.1,0.4,1.1,1c0,0.7-0.4,1.1-1.1,1.1
			C160.8,35.6,160.4,35.2,160.4,34.5z"/>
		<path fill="#FFFFFF" d="M165.4,32.2c0-0.7,0.4-1.1,1.1-1.1c0.7,0,1.1,0.4,1.1,1.1s-0.4,1.1-1.1,1.1
			C165.8,33.3,165.4,32.9,165.4,32.2z M165.4,34.5c0-0.7,0.4-1,1.1-1c0.7,0,1.1,0.4,1.1,1c0,0.7-0.4,1.1-1.1,1.1
			C165.8,35.6,165.4,35.2,165.4,34.5z M165.4,36.8c0-0.7,0.4-1,1.1-1c0.7,0,1.1,0.4,1.1,1c0,0.7-0.4,1.1-1.1,1.1
			C165.8,37.8,165.4,37.5,165.4,36.8z M165.4,39.1c0-0.7,0.4-1.1,1.1-1.1c0.7,0,1.1,0.4,1.1,1.1c0,0.7-0.4,1-1.1,1
			C165.8,40.1,165.4,39.8,165.4,39.1z M165.4,41.4c0-0.7,0.4-1.1,1.1-1.1c0.7,0,1.1,0.4,1.1,1.1s-0.4,1-1.1,1
			C165.8,42.4,165.4,42.1,165.4,41.4z M165.4,43.7c0-0.7,0.4-1.1,1.1-1.1c0.7,0,1.1,0.4,1.1,1.1s-0.4,1.1-1.1,1.1
			C165.8,44.7,165.4,44.4,165.4,43.7z M165.4,46c0-0.7,0.4-1.1,1.1-1.1c0.7,0,1.1,0.4,1.1,1.1s-0.4,1.1-1.1,1.1
			C165.8,47,165.4,46.7,165.4,46z M165.4,48.3c0-0.7,0.4-1.1,1.1-1.1c0.7,0,1.1,0.4,1.1,1.1s-0.4,1.1-1.1,1.1
			C165.8,49.3,165.4,49,165.4,48.3z M165.4,50.5c0-0.7,0.4-1.1,1.1-1.1c0.7,0,1.1,0.4,1.1,1.1s-0.4,1.1-1.1,1.1
			C165.8,51.6,165.4,51.2,165.4,50.5z M165.4,52.8c0-0.7,0.4-1.1,1.1-1.1c0.7,0,1.1,0.4,1.1,1.1s-0.4,1.1-1.1,1.1
			C165.8,53.9,165.4,53.5,165.4,52.8z M165.4,55.1c0-0.7,0.4-1.1,1.1-1.1c0.7,0,1.1,0.4,1.1,1.1s-0.4,1.1-1.1,1.1
			C165.8,56.2,165.4,55.8,165.4,55.1z M167.7,32.2c0-0.7,0.4-1.1,1.1-1.1c0.7,0,1.1,0.4,1.1,1.1s-0.4,1.1-1.1,1.1
			S167.7,32.9,167.7,32.2z M167.7,34.5c0-0.7,0.4-1,1.1-1c0.7,0,1.1,0.4,1.1,1c0,0.7-0.4,1.1-1.1,1.1S167.7,35.2,167.7,34.5z
			 M167.7,36.8c0-0.7,0.4-1,1.1-1c0.7,0,1.1,0.4,1.1,1c0,0.7-0.4,1.1-1.1,1.1C168.1,37.8,167.7,37.5,167.7,36.8z M167.7,39.1
			c0-0.7,0.4-1.1,1.1-1.1c0.7,0,1.1,0.4,1.1,1.1c0,0.7-0.4,1-1.1,1S167.7,39.8,167.7,39.1z M167.7,41.4c0-0.7,0.4-1.1,1.1-1.1
			c0.7,0,1.1,0.4,1.1,1.1s-0.4,1-1.1,1S167.7,42.1,167.7,41.4z M167.7,43.7c0-0.7,0.4-1.1,1.1-1.1c0.7,0,1.1,0.4,1.1,1.1
			s-0.4,1.1-1.1,1.1C168.1,44.7,167.7,44.4,167.7,43.7z M167.7,46c0-0.7,0.4-1.1,1.1-1.1c0.7,0,1.1,0.4,1.1,1.1s-0.4,1.1-1.1,1.1
			C168.1,47,167.7,46.7,167.7,46z M167.7,48.3c0-0.7,0.4-1.1,1.1-1.1c0.7,0,1.1,0.4,1.1,1.1s-0.4,1.1-1.1,1.1
			C168.1,49.3,167.7,49,167.7,48.3z M167.7,50.5c0-0.7,0.4-1.1,1.1-1.1c0.7,0,1.1,0.4,1.1,1.1s-0.4,1.1-1.1,1.1
			S167.7,51.2,167.7,50.5z M167.7,52.8c0-0.7,0.4-1.1,1.1-1.1c0.7,0,1.1,0.4,1.1,1.1s-0.4,1.1-1.1,1.1S167.7,53.5,167.7,52.8z
			 M167.7,55.1c0-0.7,0.4-1.1,1.1-1.1c0.7,0,1.1,0.4,1.1,1.1s-0.4,1.1-1.1,1.1C168.1,56.2,167.7,55.8,167.7,55.1z"/>
		<path fill="#FFFFFF" d="M172.8,32.2c0-0.7,0.4-1.1,1.1-1.1c0.7,0,1.1,0.4,1.1,1.1s-0.4,1.1-1.1,1.1
			C173.1,33.3,172.8,32.9,172.8,32.2z M172.8,34.5c0-0.7,0.4-1,1.1-1c0.7,0,1.1,0.4,1.1,1c0,0.7-0.4,1.1-1.1,1.1
			C173.1,35.6,172.8,35.2,172.8,34.5z M172.8,36.8c0-0.7,0.4-1,1.1-1c0.7,0,1.1,0.4,1.1,1c0,0.7-0.4,1.1-1.1,1.1
			C173.1,37.8,172.8,37.5,172.8,36.8z M172.8,39.1c0-0.7,0.4-1.1,1.1-1.1c0.7,0,1.1,0.4,1.1,1.1c0,0.7-0.4,1-1.1,1
			C173.1,40.1,172.8,39.8,172.8,39.1z M172.8,41.4c0-0.7,0.4-1.1,1.1-1.1c0.7,0,1.1,0.4,1.1,1.1s-0.4,1-1.1,1
			C173.1,42.4,172.8,42.1,172.8,41.4z M172.8,43.7c0-0.7,0.4-1.1,1.1-1.1c0.7,0,1.1,0.4,1.1,1.1s-0.4,1.1-1.1,1.1
			C173.1,44.7,172.8,44.4,172.8,43.7z M172.8,46c0-0.7,0.4-1.1,1.1-1.1c0.7,0,1.1,0.4,1.1,1.1s-0.4,1.1-1.1,1.1
			C173.1,47,172.8,46.7,172.8,46z M172.8,48.3c0-0.7,0.4-1.1,1.1-1.1c0.7,0,1.1,0.4,1.1,1.1s-0.4,1.1-1.1,1.1
			C173.1,49.3,172.8,49,172.8,48.3z M172.8,50.5c0-0.7,0.4-1.1,1.1-1.1c0.7,0,1.1,0.4,1.1,1.1s-0.4,1.1-1.1,1.1
			C173.1,51.6,172.8,51.2,172.8,50.5z M175.1,32.2c0-0.7,0.4-1.1,1.1-1.1c0.7,0,1.1,0.4,1.1,1.1s-0.4,1.1-1.1,1.1
			C175.4,33.3,175.1,32.9,175.1,32.2z M175.1,34.5c0-0.7,0.4-1,1.1-1c0.7,0,1.1,0.4,1.1,1c0,0.7-0.4,1.1-1.1,1.1
			C175.4,35.6,175.1,35.2,175.1,34.5z M175.1,36.8c0-0.7,0.4-1,1.1-1c0.7,0,1.1,0.4,1.1,1c0,0.7-0.4,1.1-1.1,1.1
			C175.4,37.8,175.1,37.5,175.1,36.8z M175.1,39.1c0-0.7,0.4-1.1,1.1-1.1c0.7,0,1.1,0.4,1.1,1.1c0,0.7-0.4,1-1.1,1
			C175.4,40.1,175.1,39.8,175.1,39.1z M175.1,41.4c0-0.7,0.4-1.1,1.1-1.1c0.7,0,1.1,0.4,1.1,1.1s-0.4,1-1.1,1
			C175.4,42.4,175.1,42.1,175.1,41.4z M175.1,43.7c0-0.7,0.4-1.1,1.1-1.1c0.7,0,1.1,0.4,1.1,1.1s-0.4,1.1-1.1,1.1
			C175.4,44.7,175.1,44.4,175.1,43.7z M175.1,46c0-0.7,0.4-1.1,1.1-1.1c0.7,0,1.1,0.4,1.1,1.1s-0.4,1.1-1.1,1.1
			C175.4,47,175.1,46.7,175.1,46z M175.1,48.3c0-0.7,0.4-1.1,1.1-1.1c0.7,0,1.1,0.4,1.1,1.1s-0.4,1.1-1.1,1.1
			C175.4,49.3,175.1,49,175.1,48.3z M175.1,50.5c0-0.7,0.4-1.1,1.1-1.1c0.7,0,1.1,0.4,1.1,1.1s-0.4,1.1-1.1,1.1
			C175.4,51.6,175.1,51.2,175.1,50.5z M175.1,52.8c0-0.7,0.4-1.1,1.1-1.1c0.7,0,1.1,0.4,1.1,1.1s-0.4,1.1-1.1,1.1
			C175.4,53.9,175.1,53.5,175.1,52.8z M175.1,55.1c0-0.7,0.4-1.1,1.1-1.1c0.7,0,1.1,0.4,1.1,1.1s-0.4,1.1-1.1,1.1
			C175.4,56.2,175.1,55.8,175.1,55.1z M177.4,52.8c0-0.7,0.4-1.1,1.1-1.1c0.7,0,1.1,0.4,1.1,1.1s-0.4,1.1-1.1,1.1
			C177.7,53.9,177.4,53.5,177.4,52.8z M177.4,55.1c0-0.7,0.4-1.1,1.1-1.1c0.7,0,1.1,0.4,1.1,1.1s-0.4,1.1-1.1,1.1
			C177.7,56.2,177.4,55.8,177.4,55.1z M179.7,52.8c0-0.7,0.4-1.1,1.1-1.1c0.7,0,1.1,0.4,1.1,1.1s-0.4,1.1-1.1,1.1
			C180,53.9,179.7,53.5,179.7,52.8z M179.7,55.1c0-0.7,0.4-1.1,1.1-1.1c0.7,0,1.1,0.4,1.1,1.1s-0.4,1.1-1.1,1.1
			C180,56.2,179.7,55.8,179.7,55.1z M182,32.2c0-0.7,0.3-1.1,1-1.1s1.1,0.4,1.1,1.1s-0.4,1.1-1.1,1.1S182,32.9,182,32.2z M182,34.5
			c0-0.7,0.3-1,1-1s1.1,0.4,1.1,1c0,0.7-0.4,1.1-1.1,1.1C182.3,35.6,182,35.2,182,34.5z M182,36.8c0-0.7,0.3-1,1-1s1.1,0.4,1.1,1
			c0,0.7-0.4,1.1-1.1,1.1C182.3,37.8,182,37.5,182,36.8z M182,39.1c0-0.7,0.3-1.1,1-1.1s1.1,0.4,1.1,1.1c0,0.7-0.4,1-1.1,1
			C182.3,40.1,182,39.8,182,39.1z M182,41.4c0-0.7,0.3-1.1,1-1.1s1.1,0.4,1.1,1.1s-0.4,1-1.1,1C182.3,42.4,182,42.1,182,41.4z
			 M182,43.7c0-0.7,0.3-1.1,1-1.1s1.1,0.4,1.1,1.1s-0.4,1.1-1.1,1.1C182.3,44.7,182,44.4,182,43.7z M182,46c0-0.7,0.3-1.1,1-1.1
			s1.1,0.4,1.1,1.1s-0.4,1.1-1.1,1.1C182.3,47,182,46.7,182,46z M182,48.3c0-0.7,0.3-1.1,1-1.1s1.1,0.4,1.1,1.1s-0.4,1-1.1,1
			S182,49,182,48.3z M182,50.5c0-0.7,0.3-1.1,1-1.1s1.1,0.4,1.1,1.1s-0.4,1.1-1.1,1.1C182.3,51.6,182,51.2,182,50.5z M182,52.8
			c0-0.7,0.3-1.1,1-1.1s1.1,0.4,1.1,1.1s-0.4,1.1-1.1,1.1C182.3,53.9,182,53.5,182,52.8z M182,55.1c0-0.7,0.3-1.1,1-1.1
			s1.1,0.4,1.1,1.1s-0.4,1.1-1.1,1.1C182.3,56.2,182,55.8,182,55.1z M184.3,32.2c0-0.7,0.4-1.1,1-1.1c0.7,0,1.1,0.4,1.1,1.1
			s-0.4,1.1-1.1,1.1S184.3,32.9,184.3,32.2z M184.3,34.5c0-0.7,0.4-1,1-1c0.7,0,1.1,0.4,1.1,1c0,0.7-0.4,1.1-1.1,1.1
			S184.3,35.2,184.3,34.5z M184.3,36.8c0-0.7,0.4-1,1-1c0.7,0,1.1,0.4,1.1,1c0,0.7-0.4,1.1-1.1,1.1
			C184.6,37.8,184.3,37.5,184.3,36.8z M184.3,39.1c0-0.7,0.4-1.1,1-1.1c0.7,0,1.1,0.4,1.1,1.1c0,0.7-0.4,1-1.1,1
			S184.3,39.8,184.3,39.1z M184.3,41.4c0-0.7,0.4-1.1,1-1.1c0.7,0,1.1,0.4,1.1,1.1s-0.4,1-1.1,1S184.3,42.1,184.3,41.4z M184.3,43.7
			c0-0.7,0.4-1.1,1-1.1c0.7,0,1.1,0.4,1.1,1.1s-0.4,1.1-1.1,1.1C184.6,44.7,184.3,44.4,184.3,43.7z M184.3,46c0-0.7,0.4-1.1,1-1.1
			c0.7,0,1.1,0.4,1.1,1.1s-0.4,1.1-1.1,1.1C184.6,47,184.3,46.7,184.3,46z M184.3,48.3c0-0.7,0.4-1.1,1-1.1c0.7,0,1.1,0.4,1.1,1.1
			s-0.4,1.1-1.1,1.1C184.6,49.3,184.3,49,184.3,48.3z M184.3,50.5c0-0.7,0.4-1.1,1-1.1c0.7,0,1.1,0.4,1.1,1.1s-0.4,1.1-1.1,1.1
			S184.3,51.2,184.3,50.5z"/>
		<path fill="#FFFFFF" d="M189.3,34.5c0-0.7,0.4-1,1.1-1c0.7,0,1.1,0.4,1.1,1c0,0.7-0.4,1.1-1.1,1.1
			C189.6,35.6,189.3,35.2,189.3,34.5z M189.3,36.8c0-0.7,0.4-1,1.1-1c0.7,0,1.1,0.4,1.1,1c0,0.7-0.4,1.1-1.1,1.1
			C189.6,37.8,189.3,37.5,189.3,36.8z M189.3,39.1c0-0.7,0.4-1.1,1.1-1.1c0.7,0,1.1,0.4,1.1,1.1c0,0.7-0.4,1-1.1,1
			C189.6,40.1,189.3,39.8,189.3,39.1z M189.3,41.4c0-0.7,0.4-1.1,1.1-1.1c0.7,0,1.1,0.4,1.1,1.1s-0.4,1-1.1,1
			C189.6,42.4,189.3,42.1,189.3,41.4z M189.3,43.7c0-0.7,0.4-1.1,1.1-1.1c0.7,0,1.1,0.4,1.1,1.1s-0.4,1.1-1.1,1.1
			C189.6,44.7,189.3,44.4,189.3,43.7z M189.3,46c0-0.7,0.4-1.1,1.1-1.1c0.7,0,1.1,0.4,1.1,1.1s-0.4,1.1-1.1,1.1
			C189.6,47,189.3,46.7,189.3,46z M189.3,48.3c0-0.7,0.4-1.1,1.1-1.1c0.7,0,1.1,0.4,1.1,1.1s-0.4,1.1-1.1,1.1
			C189.6,49.3,189.3,49,189.3,48.3z M189.3,50.5c0-0.7,0.4-1.1,1.1-1.1c0.7,0,1.1,0.4,1.1,1.1s-0.4,1.1-1.1,1.1
			C189.6,51.6,189.3,51.2,189.3,50.5z M189.3,52.8c0-0.7,0.4-1.1,1.1-1.1c0.7,0,1.1,0.4,1.1,1.1s-0.4,1.1-1.1,1.1
			C189.6,53.9,189.3,53.5,189.3,52.8z M189.3,55.1c0-0.7,0.4-1.1,1.1-1.1c0.7,0,1.1,0.4,1.1,1.1s-0.4,1.1-1.1,1.1
			C189.6,56.2,189.3,55.8,189.3,55.1z M191.6,32.2c0-0.7,0.4-1.1,1.1-1.1c0.7,0,1.1,0.4,1.1,1.1s-0.4,1.1-1.1,1.1
			C191.9,33.3,191.6,32.9,191.6,32.2z M191.6,34.5c0-0.7,0.4-1,1.1-1c0.7,0,1.1,0.4,1.1,1c0,0.7-0.4,1.1-1.1,1.1
			C191.9,35.6,191.6,35.2,191.6,34.5z M191.6,36.8c0-0.7,0.4-1,1.1-1c0.7,0,1.1,0.4,1.1,1c0,0.7-0.4,1.1-1.1,1.1
			C191.9,37.8,191.6,37.5,191.6,36.8z M191.6,39.1c0-0.7,0.4-1.1,1.1-1.1c0.7,0,1.1,0.4,1.1,1.1c0,0.7-0.4,1-1.1,1
			C191.9,40.1,191.6,39.8,191.6,39.1z M191.6,41.4c0-0.7,0.4-1.1,1.1-1.1c0.7,0,1.1,0.4,1.1,1.1s-0.4,1-1.1,1
			C191.9,42.4,191.6,42.1,191.6,41.4z M191.6,43.7c0-0.7,0.4-1.1,1.1-1.1c0.7,0,1.1,0.4,1.1,1.1s-0.4,1.1-1.1,1.1
			C191.9,44.7,191.6,44.4,191.6,43.7z M191.6,46c0-0.7,0.4-1.1,1.1-1.1c0.7,0,1.1,0.4,1.1,1.1s-0.4,1.1-1.1,1.1
			C191.9,47,191.6,46.7,191.6,46z M191.6,48.3c0-0.7,0.4-1.1,1.1-1.1c0.7,0,1.1,0.4,1.1,1.1s-0.4,1.1-1.1,1.1
			C191.9,49.3,191.6,49,191.6,48.3z M191.6,50.5c0-0.7,0.4-1.1,1.1-1.1c0.7,0,1.1,0.4,1.1,1.1s-0.4,1.1-1.1,1.1
			C191.9,51.6,191.6,51.2,191.6,50.5z M191.6,52.8c0-0.7,0.4-1.1,1.1-1.1c0.7,0,1.1,0.4,1.1,1.1s-0.4,1.1-1.1,1.1
			C191.9,53.9,191.6,53.5,191.6,52.8z M191.6,55.1c0-0.7,0.4-1.1,1.1-1.1c0.7,0,1.1,0.4,1.1,1.1s-0.4,1.1-1.1,1.1
			C191.9,56.2,191.6,55.8,191.6,55.1z M193.9,32.2c0-0.7,0.4-1.1,1.1-1.1c0.7,0,1.1,0.4,1.1,1.1s-0.4,1.1-1.1,1.1
			C194.2,33.3,193.9,32.9,193.9,32.2z M193.9,34.5c0-0.7,0.4-1,1.1-1c0.7,0,1.1,0.4,1.1,1c0,0.7-0.4,1.1-1.1,1.1
			C194.2,35.6,193.9,35.2,193.9,34.5z M193.9,48.3c0-0.7,0.4-1.1,1.1-1.1c0.7,0,1.1,0.4,1.1,1.1s-0.4,1.1-1.1,1.1
			C194.2,49.3,193.9,49,193.9,48.3z M193.9,50.5c0-0.7,0.4-1.1,1.1-1.1c0.7,0,1.1,0.4,1.1,1.1s-0.4,1.1-1.1,1.1
			C194.2,51.6,193.9,51.2,193.9,50.5z M196.2,32.2c0-0.7,0.4-1.1,1.1-1.1c0.7,0,1.1,0.4,1.1,1.1s-0.4,1.1-1.1,1.1
			C196.5,33.3,196.2,32.9,196.2,32.2z M196.2,34.5c0-0.7,0.4-1,1.1-1c0.7,0,1.1,0.4,1.1,1c0,0.7-0.4,1.1-1.1,1.1
			C196.5,35.6,196.2,35.2,196.2,34.5z M196.2,48.3c0-0.7,0.4-1.1,1.1-1.1c0.7,0,1.1,0.4,1.1,1.1s-0.4,1.1-1.1,1.1
			C196.5,49.3,196.2,49,196.2,48.3z M196.2,50.5c0-0.7,0.4-1.1,1.1-1.1c0.7,0,1.1,0.4,1.1,1.1s-0.4,1.1-1.1,1.1
			C196.5,51.6,196.2,51.2,196.2,50.5z M198.4,32.2c0-0.7,0.3-1.1,1-1.1s1.1,0.4,1.1,1.1s-0.4,1.1-1.1,1.1
			C198.8,33.3,198.4,32.9,198.4,32.2z M198.4,34.5c0-0.7,0.3-1,1-1s1.1,0.4,1.1,1c0,0.7-0.4,1.1-1.1,1.1
			C198.8,35.6,198.4,35.2,198.4,34.5z M198.4,36.8c0-0.7,0.3-1,1-1s1.1,0.4,1.1,1c0,0.7-0.4,1.1-1.1,1.1
			C198.8,37.8,198.4,37.5,198.4,36.8z M198.4,39.1c0-0.7,0.3-1.1,1-1.1s1.1,0.4,1.1,1.1c0,0.7-0.4,1-1.1,1
			C198.8,40.1,198.4,39.8,198.4,39.1z M198.4,41.4c0-0.7,0.3-1.1,1-1.1s1.1,0.4,1.1,1.1s-0.4,1-1.1,1
			C198.8,42.4,198.4,42.1,198.4,41.4z M198.4,43.7c0-0.7,0.3-1.1,1-1.1s1.1,0.4,1.1,1.1s-0.4,1.1-1.1,1.1
			C198.8,44.7,198.4,44.4,198.4,43.7z M198.4,46c0-0.7,0.3-1.1,1-1.1s1.1,0.4,1.1,1.1s-0.4,1.1-1.1,1.1
			C198.8,47,198.4,46.7,198.4,46z M198.4,48.3c0-0.7,0.3-1.1,1-1.1s1.1,0.4,1.1,1.1s-0.4,1.1-1.1,1.1
			C198.8,49.3,198.4,49,198.4,48.3z M198.4,50.5c0-0.7,0.3-1.1,1-1.1s1.1,0.4,1.1,1.1s-0.4,1.1-1.1,1.1
			C198.8,51.6,198.4,51.2,198.4,50.5z M198.4,52.8c0-0.7,0.3-1.1,1-1.1s1.1,0.4,1.1,1.1s-0.4,1.1-1.1,1.1
			C198.8,53.9,198.4,53.5,198.4,52.8z M198.4,55.1c0-0.7,0.3-1.1,1-1.1s1.1,0.4,1.1,1.1s-0.4,1.1-1.1,1.1
			C198.8,56.2,198.4,55.8,198.4,55.1z M200.7,34.5c0-0.7,0.4-1,1-1c0.7,0,1.1,0.4,1.1,1c0,0.7-0.4,1.1-1.1,1.1
			C201.1,35.6,200.7,35.2,200.7,34.5z M200.7,36.8c0-0.7,0.4-1,1-1c0.7,0,1.1,0.4,1.1,1c0,0.7-0.4,1.1-1.1,1.1
			C201.1,37.8,200.7,37.5,200.7,36.8z M200.7,39.1c0-0.7,0.4-1.1,1-1.1c0.7,0,1.1,0.4,1.1,1.1c0,0.7-0.4,1-1.1,1
			C201.1,40.1,200.7,39.8,200.7,39.1z M200.7,41.4c0-0.7,0.4-1.1,1-1.1c0.7,0,1.1,0.4,1.1,1.1s-0.4,1-1.1,1
			C201.1,42.4,200.7,42.1,200.7,41.4z M200.7,43.7c0-0.7,0.4-1.1,1-1.1c0.7,0,1.1,0.4,1.1,1.1s-0.4,1.1-1.1,1.1
			C201.1,44.7,200.7,44.4,200.7,43.7z M200.7,46c0-0.7,0.4-1.1,1-1.1c0.7,0,1.1,0.4,1.1,1.1s-0.4,1.1-1.1,1.1
			C201.1,47,200.7,46.7,200.7,46z M200.7,48.3c0-0.7,0.4-1.1,1-1.1c0.7,0,1.1,0.4,1.1,1.1s-0.4,1.1-1.1,1.1
			C201.1,49.3,200.7,49,200.7,48.3z M200.7,50.5c0-0.7,0.4-1.1,1-1.1c0.7,0,1.1,0.4,1.1,1.1s-0.4,1.1-1.1,1.1
			C201.1,51.6,200.7,51.2,200.7,50.5z M200.7,52.8c0-0.7,0.4-1.1,1-1.1c0.7,0,1.1,0.4,1.1,1.1s-0.4,1.1-1.1,1.1
			C201.1,53.9,200.7,53.5,200.7,52.8z M200.7,55.1c0-0.7,0.4-1.1,1-1.1c0.7,0,1.1,0.4,1.1,1.1s-0.4,1.1-1.1,1.1
			C201.1,56.2,200.7,55.8,200.7,55.1z"/>
		<path fill="#FFFFFF" d="M205.8,34.5c0-0.7,0.4-1,1.1-1c0.7,0,1.1,0.4,1.1,1c0,0.7-0.4,1.1-1.1,1.1
			C206.1,35.6,205.8,35.2,205.8,34.5z M205.8,36.8c0-0.7,0.4-1,1.1-1c0.7,0,1.1,0.4,1.1,1c0,0.7-0.4,1.1-1.1,1.1
			C206.1,37.8,205.8,37.5,205.8,36.8z M205.8,39.1c0-0.7,0.4-1.1,1.1-1.1c0.7,0,1.1,0.4,1.1,1.1c0,0.7-0.4,1-1.1,1
			C206.1,40.1,205.8,39.8,205.8,39.1z M205.8,41.4c0-0.7,0.4-1.1,1.1-1.1c0.7,0,1.1,0.4,1.1,1.1s-0.4,1-1.1,1
			C206.1,42.4,205.8,42.1,205.8,41.4z M205.8,43.7c0-0.7,0.4-1.1,1.1-1.1c0.7,0,1.1,0.4,1.1,1.1s-0.4,1.1-1.1,1.1
			C206.1,44.7,205.8,44.4,205.8,43.7z M205.8,50.5c0-0.7,0.4-1.1,1.1-1.1c0.7,0,1.1,0.4,1.1,1.1s-0.4,1.1-1.1,1.1
			C206.1,51.6,205.8,51.2,205.8,50.5z M205.8,52.8c0-0.7,0.4-1.1,1.1-1.1c0.7,0,1.1,0.4,1.1,1.1s-0.4,1.1-1.1,1.1
			C206.1,53.9,205.8,53.5,205.8,52.8z M208.1,32.2c0-0.7,0.4-1.1,1.1-1.1c0.7,0,1.1,0.4,1.1,1.1s-0.4,1.1-1.1,1.1
			C208.4,33.3,208.1,32.9,208.1,32.2z M208.1,34.5c0-0.7,0.4-1,1.1-1c0.7,0,1.1,0.4,1.1,1c0,0.7-0.4,1.1-1.1,1.1
			C208.4,35.6,208.1,35.2,208.1,34.5z M208.1,36.8c0-0.7,0.4-1,1.1-1c0.7,0,1.1,0.4,1.1,1c0,0.7-0.4,1.1-1.1,1.1
			C208.4,37.8,208.1,37.5,208.1,36.8z M208.1,39.1c0-0.7,0.4-1.1,1.1-1.1c0.7,0,1.1,0.4,1.1,1.1c0,0.7-0.4,1-1.1,1
			C208.4,40.1,208.1,39.8,208.1,39.1z M208.1,41.4c0-0.7,0.4-1.1,1.1-1.1c0.7,0,1.1,0.4,1.1,1.1s-0.4,1-1.1,1
			C208.4,42.4,208.1,42.1,208.1,41.4z M208.1,43.7c0-0.7,0.4-1.1,1.1-1.1c0.7,0,1.1,0.4,1.1,1.1s-0.4,1.1-1.1,1.1
			C208.4,44.7,208.1,44.4,208.1,43.7z M208.1,46c0-0.7,0.4-1.1,1.1-1.1c0.7,0,1.1,0.4,1.1,1.1s-0.4,1.1-1.1,1.1
			C208.4,47,208.1,46.7,208.1,46z M208.1,50.5c0-0.7,0.4-1.1,1.1-1.1c0.7,0,1.1,0.4,1.1,1.1s-0.4,1.1-1.1,1.1
			C208.4,51.6,208.1,51.2,208.1,50.5z M208.1,52.8c0-0.7,0.4-1.1,1.1-1.1c0.7,0,1.1,0.4,1.1,1.1s-0.4,1.1-1.1,1.1
			C208.4,53.9,208.1,53.5,208.1,52.8z M208.1,55.1c0-0.7,0.4-1.1,1.1-1.1c0.7,0,1.1,0.4,1.1,1.1s-0.4,1.1-1.1,1.1
			C208.4,56.2,208.1,55.8,208.1,55.1z M210.3,32.2c0-0.7,0.4-1.1,1.1-1.1c0.7,0,1.1,0.4,1.1,1.1s-0.4,1.1-1.1,1.1
			S210.3,32.9,210.3,32.2z M210.3,34.5c0-0.7,0.4-1,1.1-1c0.7,0,1.1,0.4,1.1,1c0,0.7-0.4,1.1-1.1,1.1S210.3,35.2,210.3,34.5z
			 M210.3,43.7c0-0.7,0.4-1.1,1.1-1.1c0.7,0,1.1,0.4,1.1,1.1s-0.4,1.1-1.1,1.1C210.7,44.7,210.3,44.4,210.3,43.7z M210.3,46
			c0-0.7,0.4-1.1,1.1-1.1c0.7,0,1.1,0.4,1.1,1.1s-0.4,1.1-1.1,1.1C210.7,47,210.3,46.7,210.3,46z M210.3,52.8c0-0.7,0.4-1.1,1.1-1.1
			c0.7,0,1.1,0.4,1.1,1.1s-0.4,1.1-1.1,1.1S210.3,53.5,210.3,52.8z M210.3,55.1c0-0.7,0.4-1.1,1.1-1.1c0.7,0,1.1,0.4,1.1,1.1
			s-0.4,1.1-1.1,1.1C210.7,56.2,210.3,55.8,210.3,55.1z M212.6,32.2c0-0.7,0.4-1.1,1.1-1.1c0.7,0,1.1,0.4,1.1,1.1s-0.4,1.1-1.1,1.1
			S212.6,32.9,212.6,32.2z M212.6,34.5c0-0.7,0.4-1,1.1-1c0.7,0,1.1,0.4,1.1,1c0,0.7-0.4,1.1-1.1,1.1
			C213,35.6,212.6,35.2,212.6,34.5z M212.6,43.7c0-0.7,0.4-1.1,1.1-1.1c0.7,0,1.1,0.4,1.1,1.1s-0.4,1.1-1.1,1.1
			C213,44.7,212.6,44.4,212.6,43.7z M212.6,46c0-0.7,0.4-1.1,1.1-1.1c0.7,0,1.1,0.4,1.1,1.1s-0.4,1.1-1.1,1.1
			C213,47,212.6,46.7,212.6,46z M212.6,52.8c0-0.7,0.4-1.1,1.1-1.1c0.7,0,1.1,0.4,1.1,1.1s-0.4,1.1-1.1,1.1
			C213,53.9,212.6,53.5,212.6,52.8z M212.6,55.1c0-0.7,0.4-1.1,1.1-1.1c0.7,0,1.1,0.4,1.1,1.1s-0.4,1.1-1.1,1.1
			C213,56.2,212.6,55.8,212.6,55.1z M214.9,32.2c0-0.7,0.3-1.1,1-1.1s1.1,0.4,1.1,1.1s-0.3,1.1-1,1.1S214.9,32.9,214.9,32.2z
			 M214.9,34.5c0-0.7,0.3-1,1-1s1.1,0.4,1.1,1c0,0.7-0.4,1.1-1.1,1.1C215.3,35.6,214.9,35.2,214.9,34.5z M214.9,36.8
			c0-0.7,0.3-1,1-1s1.1,0.4,1.1,1c0,0.7-0.4,1.1-1.1,1.1C215.3,37.8,214.9,37.5,214.9,36.8z M214.9,39.1c0-0.7,0.3-1,1-1
			s1.1,0.4,1.1,1c0,0.7-0.4,1.1-1.1,1.1C215.3,40.2,214.9,39.8,214.9,39.1z M214.9,43.7c0-0.7,0.3-1.1,1-1.1s1.1,0.4,1.1,1.1
			s-0.4,1.1-1.1,1.1C215.3,44.7,214.9,44.4,214.9,43.7z M214.9,46c0-0.7,0.3-1.1,1-1.1s1.1,0.4,1.1,1.1s-0.4,1.1-1.1,1.1
			C215.3,47,214.9,46.7,214.9,46z M214.9,48.3c0-0.7,0.3-1.1,1-1.1s1.1,0.4,1.1,1.1s-0.3,1-1,1S214.9,49,214.9,48.3z M214.9,50.5
			c0-0.7,0.3-1.1,1-1.1s1.1,0.4,1.1,1.1s-0.4,1.1-1.1,1.1C215.3,51.6,214.9,51.2,214.9,50.5z M214.9,52.8c0-0.7,0.3-1.1,1-1.1
			s1.1,0.4,1.1,1.1s-0.4,1.1-1.1,1.1C215.3,53.9,214.9,53.5,214.9,52.8z M214.9,55.1c0-0.7,0.3-1.1,1-1.1s1.1,0.4,1.1,1.1
			s-0.4,1.1-1.1,1.1C215.3,56.2,214.9,55.8,214.9,55.1z M217.2,34.5c0-0.7,0.4-1,1-1c0.7,0,1.1,0.4,1.1,1c0,0.7-0.4,1.1-1.1,1.1
			C217.6,35.6,217.2,35.2,217.2,34.5z M217.2,36.8c0-0.7,0.4-1,1-1c0.7,0,1.1,0.4,1.1,1c0,0.7-0.4,1.1-1.1,1.1
			C217.6,37.8,217.2,37.5,217.2,36.8z M217.2,39.1c0-0.7,0.4-1,1-1c0.7,0,1.1,0.4,1.1,1c0,0.7-0.4,1.1-1.1,1.1
			C217.6,40.2,217.2,39.8,217.2,39.1z M217.2,46c0-0.7,0.4-1.1,1-1.1c0.7,0,1.1,0.4,1.1,1.1s-0.4,1.1-1.1,1.1
			C217.6,47,217.2,46.7,217.2,46z M217.2,48.3c0-0.7,0.4-1.1,1-1.1c0.7,0,1.1,0.4,1.1,1.1s-0.4,1.1-1.1,1.1
			C217.6,49.3,217.2,49,217.2,48.3z M217.2,50.5c0-0.7,0.4-1.1,1-1.1c0.7,0,1.1,0.4,1.1,1.1s-0.4,1.1-1.1,1.1
			C217.6,51.6,217.2,51.2,217.2,50.5z M217.2,52.8c0-0.7,0.4-1.1,1-1.1c0.7,0,1.1,0.4,1.1,1.1s-0.4,1.1-1.1,1.1
			C217.6,53.9,217.2,53.5,217.2,52.8z"/>
	</g>
</g>
<g>
	<g>
		<path fill="#FFFFFF" d="M71.3,5.7c0-0.7,0.4-1,1.1-1s1.1,0.4,1.1,1c0,0.7-0.4,1.1-1.1,1.1S71.3,6.4,71.3,5.7z M71.3,8
			c0-0.7,0.4-1,1.1-1s1.1,0.4,1.1,1c0,0.7-0.4,1.1-1.1,1.1S71.3,8.7,71.3,8z M71.3,10.3c0-0.7,0.4-1.1,1.1-1.1s1.1,0.4,1.1,1.1
			s-0.4,1-1.1,1S71.3,11,71.3,10.3z M71.3,12.6c0-0.7,0.4-1.1,1.1-1.1s1.1,0.4,1.1,1.1s-0.4,1-1.1,1S71.3,13.3,71.3,12.6z
			 M71.3,14.8c0-0.7,0.4-1.1,1.1-1.1s1.1,0.4,1.1,1.1s-0.4,1.1-1.1,1.1S71.3,15.5,71.3,14.8z M71.3,17.1c0-0.7,0.4-1.1,1.1-1.1
			s1.1,0.4,1.1,1.1s-0.4,1.1-1.1,1.1S71.3,17.8,71.3,17.1z M71.3,19.4c0-0.7,0.4-1.1,1.1-1.1s1.1,0.4,1.1,1.1s-0.4,1.1-1.1,1.1
			S71.3,20.1,71.3,19.4z M71.3,21.7c0-0.7,0.4-1.1,1.1-1.1s1.1,0.4,1.1,1.1s-0.4,1.1-1.1,1.1S71.3,22.4,71.3,21.7z M71.3,24
			c0-0.7,0.4-1.1,1.1-1.1s1.1,0.4,1.1,1.1s-0.4,1.1-1.1,1.1S71.3,24.7,71.3,24z M73.6,3.4c0-0.7,0.4-1.1,1.1-1.1s1,0.4,1,1.1
			s-0.4,1.1-1.1,1.1S73.6,4.1,73.6,3.4z M73.6,5.7c0-0.7,0.4-1,1.1-1s1.1,0.4,1.1,1c0,0.7-0.4,1.1-1.1,1.1S73.6,6.4,73.6,5.7z
			 M73.6,8c0-0.7,0.4-1,1.1-1s1.1,0.4,1.1,1c0,0.7-0.4,1.1-1.1,1.1S73.6,8.7,73.6,8z M73.6,10.3c0-0.7,0.4-1.1,1.1-1.1s1,0.4,1,1.1
			s-0.4,1-1.1,1S73.6,11,73.6,10.3z M73.6,12.6c0-0.7,0.4-1.1,1.1-1.1s1.1,0.4,1.1,1.1s-0.4,1-1.1,1S73.6,13.3,73.6,12.6z
			 M73.6,14.8c0-0.7,0.4-1.1,1.1-1.1s1.1,0.4,1.1,1.1s-0.4,1.1-1.1,1.1S73.6,15.5,73.6,14.8z M73.6,17.1c0-0.7,0.4-1.1,1.1-1.1
			s1.1,0.4,1.1,1.1s-0.4,1.1-1.1,1.1S73.6,17.8,73.6,17.1z M73.6,19.4c0-0.7,0.4-1.1,1.1-1.1s1.1,0.4,1.1,1.1s-0.4,1.1-1.1,1.1
			S73.6,20.1,73.6,19.4z M73.6,21.7c0-0.7,0.4-1.1,1.1-1.1s1.1,0.4,1.1,1.1s-0.4,1.1-1.1,1.1S73.6,22.4,73.6,21.7z M73.6,24
			c0-0.7,0.4-1.1,1.1-1.1s1,0.4,1,1.1s-0.4,1.1-1.1,1.1S73.6,24.7,73.6,24z M73.6,26.3c0-0.7,0.4-1.1,1.1-1.1s1,0.4,1,1.1
			s-0.4,1.1-1.1,1.1S73.6,27,73.6,26.3z M75.8,3.4c0-0.7,0.4-1.1,1.1-1.1S78,2.7,78,3.4s-0.4,1.1-1.1,1.1S75.8,4.1,75.8,3.4z
			 M75.8,5.7c0-0.7,0.4-1,1.1-1s1.1,0.4,1.1,1c0,0.7-0.4,1.1-1.1,1.1S75.8,6.4,75.8,5.7z M75.8,24c0-0.7,0.4-1.1,1.1-1.1
			S78,23.3,78,24s-0.4,1.1-1.1,1.1S75.8,24.7,75.8,24z M75.8,26.3c0-0.7,0.4-1.1,1.1-1.1s1.1,0.4,1.1,1.1s-0.4,1.1-1.1,1.1
			S75.8,27,75.8,26.3z M78.1,3.4c0-0.7,0.4-1.1,1.1-1.1s1.1,0.4,1.1,1.1s-0.4,1.1-1.1,1.1S78.1,4.1,78.1,3.4z M78.1,5.7
			c0-0.7,0.4-1,1.1-1s1.1,0.4,1.1,1c0,0.7-0.4,1.1-1.1,1.1S78.1,6.4,78.1,5.7z M78.1,24c0-0.7,0.4-1.1,1.1-1.1s1.1,0.4,1.1,1.1
			s-0.4,1.1-1.1,1.1S78.1,24.7,78.1,24z M78.1,26.3c0-0.7,0.4-1.1,1.1-1.1s1.1,0.4,1.1,1.1s-0.4,1.1-1.1,1.1S78.1,27,78.1,26.3z
			 M80.4,3.4c0-0.7,0.3-1.1,1-1.1s1.1,0.4,1.1,1.1s-0.4,1.1-1.1,1.1S80.4,4.1,80.4,3.4z M80.4,5.7c0-0.7,0.3-1,1-1s1.1,0.4,1.1,1
			c0,0.7-0.4,1.1-1.1,1.1S80.4,6.4,80.4,5.7z M80.4,8c0-0.7,0.3-1,1-1s1.1,0.4,1.1,1c0,0.7-0.4,1.1-1.1,1.1S80.4,8.7,80.4,8z
			 M80.4,10.3c0-0.7,0.3-1.1,1-1.1s1.1,0.4,1.1,1.1s-0.4,1-1.1,1S80.4,11,80.4,10.3z M80.4,19.4c0-0.7,0.3-1.1,1-1.1
			s1.1,0.4,1.1,1.1s-0.4,1.1-1.1,1.1S80.4,20.1,80.4,19.4z M80.4,21.7c0-0.7,0.3-1.1,1-1.1s1.1,0.4,1.1,1.1s-0.4,1.1-1.1,1.1
			S80.4,22.4,80.4,21.7z M80.4,24c0-0.7,0.3-1.1,1-1.1s1.1,0.4,1.1,1.1s-0.4,1.1-1.1,1.1S80.4,24.7,80.4,24z M80.4,26.3
			c0-0.7,0.3-1.1,1-1.1s1.1,0.4,1.1,1.1s-0.4,1.1-1.1,1.1S80.4,27,80.4,26.3z M82.7,5.7c0-0.7,0.4-1,1-1c0.7,0,1.1,0.4,1.1,1
			c0,0.7-0.4,1.1-1.1,1.1C83.1,6.7,82.7,6.4,82.7,5.7z M82.7,8c0-0.7,0.4-1,1-1c0.7,0,1.1,0.4,1.1,1c0,0.7-0.4,1.1-1.1,1.1
			C83.1,9,82.7,8.7,82.7,8z M82.7,10.3c0-0.7,0.4-1.1,1-1.1c0.7,0,1.1,0.4,1.1,1.1s-0.4,1-1.1,1C83.1,11.3,82.7,11,82.7,10.3z
			 M82.7,19.4c0-0.7,0.4-1.1,1-1.1c0.7,0,1.1,0.4,1.1,1.1s-0.4,1.1-1.1,1.1C83.1,20.5,82.7,20.1,82.7,19.4z M82.7,21.7
			c0-0.7,0.4-1.1,1-1.1c0.7,0,1.1,0.4,1.1,1.1s-0.4,1.1-1.1,1.1C83.1,22.8,82.7,22.4,82.7,21.7z M82.7,24c0-0.7,0.4-1.1,1-1.1
			c0.7,0,1.1,0.4,1.1,1.1s-0.4,1.1-1.1,1.1C83.1,25.1,82.7,24.7,82.7,24z"/>
		<path fill="#FFFFFF" d="M87.7,3.4c0-0.7,0.4-1.1,1.1-1.1s1.1,0.4,1.1,1.1s-0.4,1.1-1.1,1.1S87.7,4.1,87.7,3.4z M87.7,5.7
			c0-0.7,0.4-1,1.1-1s1.1,0.4,1.1,1c0,0.7-0.4,1.1-1.1,1.1S87.7,6.4,87.7,5.7z M87.7,8c0-0.7,0.4-1,1.1-1s1.1,0.4,1.1,1
			c0,0.7-0.4,1.1-1.1,1.1S87.7,8.7,87.7,8z M87.7,10.3c0-0.7,0.4-1.1,1.1-1.1s1.1,0.4,1.1,1.1s-0.4,1-1.1,1S87.7,11,87.7,10.3z
			 M87.7,12.6c0-0.7,0.4-1.1,1.1-1.1s1.1,0.4,1.1,1.1s-0.4,1-1.1,1S87.7,13.3,87.7,12.6z M87.7,14.8c0-0.7,0.4-1.1,1.1-1.1
			s1.1,0.4,1.1,1.1s-0.4,1.1-1.1,1.1S87.7,15.5,87.7,14.8z M87.7,17.1c0-0.7,0.4-1.1,1.1-1.1s1.1,0.4,1.1,1.1s-0.4,1.1-1.1,1.1
			S87.7,17.8,87.7,17.1z M87.7,19.4c0-0.7,0.4-1.1,1.1-1.1s1.1,0.4,1.1,1.1s-0.4,1.1-1.1,1.1S87.7,20.1,87.7,19.4z M87.7,21.7
			c0-0.7,0.4-1.1,1.1-1.1s1.1,0.4,1.1,1.1s-0.4,1.1-1.1,1.1S87.7,22.4,87.7,21.7z M87.7,24c0-0.7,0.4-1.1,1.1-1.1s1.1,0.4,1.1,1.1
			s-0.4,1.1-1.1,1.1S87.7,24.7,87.7,24z M87.7,26.3c0-0.7,0.4-1.1,1.1-1.1s1.1,0.4,1.1,1.1s-0.4,1.1-1.1,1.1S87.7,27,87.7,26.3z
			 M90,3.4c0-0.7,0.4-1.1,1.1-1.1s1.1,0.4,1.1,1.1s-0.4,1.1-1.1,1.1S90,4.1,90,3.4z M90,5.7c0-0.7,0.4-1,1.1-1s1.1,0.4,1.1,1
			c0,0.7-0.4,1.1-1.1,1.1S90,6.4,90,5.7z M90,8c0-0.7,0.4-1,1.1-1s1.1,0.4,1.1,1c0,0.7-0.4,1.1-1.1,1.1S90,8.7,90,8z M90,10.3
			c0-0.7,0.4-1.1,1.1-1.1s1.1,0.4,1.1,1.1s-0.4,1-1.1,1S90,11,90,10.3z M90,12.6c0-0.7,0.4-1.1,1.1-1.1s1.1,0.4,1.1,1.1
			s-0.4,1-1.1,1S90,13.3,90,12.6z M90,14.8c0-0.7,0.4-1.1,1.1-1.1s1.1,0.4,1.1,1.1s-0.4,1.1-1.1,1.1S90,15.5,90,14.8z M90,17.1
			c0-0.7,0.4-1.1,1.1-1.1s1.1,0.4,1.1,1.1s-0.4,1.1-1.1,1.1S90,17.8,90,17.1z M90,19.4c0-0.7,0.4-1.1,1.1-1.1s1.1,0.4,1.1,1.1
			s-0.4,1.1-1.1,1.1S90,20.1,90,19.4z M90,21.7c0-0.7,0.4-1.1,1.1-1.1s1.1,0.4,1.1,1.1s-0.4,1.1-1.1,1.1S90,22.4,90,21.7z M90,24
			c0-0.7,0.4-1.1,1.1-1.1s1.1,0.4,1.1,1.1s-0.4,1.1-1.1,1.1S90,24.7,90,24z M90,26.3c0-0.7,0.4-1.1,1.1-1.1s1.1,0.4,1.1,1.1
			s-0.4,1.1-1.1,1.1S90,27,90,26.3z M92.3,24c0-0.7,0.4-1.1,1.1-1.1s1.1,0.4,1.1,1.1s-0.4,1.1-1.1,1.1S92.3,24.7,92.3,24z
			 M92.3,26.3c0-0.7,0.4-1.1,1.1-1.1s1.1,0.4,1.1,1.1s-0.4,1.1-1.1,1.1S92.3,27,92.3,26.3z M94.6,24c0-0.7,0.4-1.1,1.1-1.1
			s1.1,0.4,1.1,1.1s-0.4,1.1-1.1,1.1S94.6,24.7,94.6,24z M94.6,26.3c0-0.7,0.4-1.1,1.1-1.1s1.1,0.4,1.1,1.1s-0.4,1.1-1.1,1.1
			S94.6,27,94.6,26.3z M96.9,24c0-0.7,0.3-1.1,1-1.1S99,23.3,99,24s-0.4,1.1-1.1,1.1S96.9,24.7,96.9,24z M96.9,26.3
			c0-0.7,0.3-1.1,1-1.1s1.1,0.4,1.1,1.1s-0.4,1.1-1.1,1.1S96.9,27,96.9,26.3z"/>
		<path fill="#FFFFFF" d="M101.9,3.4c0-0.7,0.4-1.1,1.1-1.1s1.1,0.4,1.1,1.1s-0.4,1.1-1.1,1.1S101.9,4.1,101.9,3.4z M101.9,5.7
			c0-0.7,0.4-1,1.1-1s1.1,0.4,1.1,1c0,0.7-0.4,1.1-1.1,1.1S101.9,6.4,101.9,5.7z M101.9,8c0-0.7,0.4-1,1.1-1s1.1,0.4,1.1,1
			c0,0.7-0.4,1.1-1.1,1.1S101.9,8.7,101.9,8z M101.9,10.3c0-0.7,0.4-1.1,1.1-1.1s1.1,0.4,1.1,1.1s-0.4,1-1.1,1S101.9,11,101.9,10.3z
			 M101.9,12.6c0-0.7,0.4-1.1,1.1-1.1s1.1,0.4,1.1,1.1s-0.4,1-1.1,1S101.9,13.3,101.9,12.6z M101.9,14.8c0-0.7,0.4-1.1,1.1-1.1
			s1.1,0.4,1.1,1.1s-0.4,1.1-1.1,1.1S101.9,15.5,101.9,14.8z M101.9,17.1c0-0.7,0.4-1.1,1.1-1.1s1.1,0.4,1.1,1.1s-0.4,1.1-1.1,1.1
			S101.9,17.8,101.9,17.1z M101.9,19.4c0-0.7,0.4-1.1,1.1-1.1s1.1,0.4,1.1,1.1s-0.4,1.1-1.1,1.1S101.9,20.1,101.9,19.4z M101.9,21.7
			c0-0.7,0.4-1.1,1.1-1.1s1.1,0.4,1.1,1.1s-0.4,1.1-1.1,1.1S101.9,22.4,101.9,21.7z M101.9,24c0-0.7,0.4-1.1,1.1-1.1
			s1.1,0.4,1.1,1.1s-0.4,1.1-1.1,1.1S101.9,24.7,101.9,24z M101.9,26.3c0-0.7,0.4-1.1,1.1-1.1s1.1,0.4,1.1,1.1s-0.4,1.1-1.1,1.1
			S101.9,27,101.9,26.3z M104.2,3.4c0-0.7,0.4-1.1,1.1-1.1s1.1,0.4,1.1,1.1s-0.4,1.1-1.1,1.1S104.2,4.1,104.2,3.4z M104.2,5.7
			c0-0.7,0.4-1,1.1-1s1.1,0.4,1.1,1c0,0.7-0.4,1.1-1.1,1.1S104.2,6.4,104.2,5.7z M104.2,8c0-0.7,0.4-1,1.1-1s1.1,0.4,1.1,1
			c0,0.7-0.4,1.1-1.1,1.1S104.2,8.7,104.2,8z M104.2,10.3c0-0.7,0.4-1.1,1.1-1.1s1.1,0.4,1.1,1.1s-0.4,1-1.1,1S104.2,11,104.2,10.3z
			 M104.2,12.6c0-0.7,0.4-1.1,1.1-1.1s1.1,0.4,1.1,1.1s-0.4,1-1.1,1S104.2,13.3,104.2,12.6z M104.2,14.8c0-0.7,0.4-1.1,1.1-1.1
			s1.1,0.4,1.1,1.1s-0.4,1.1-1.1,1.1S104.2,15.5,104.2,14.8z M104.2,17.1c0-0.7,0.4-1.1,1.1-1.1s1.1,0.4,1.1,1.1s-0.4,1.1-1.1,1.1
			S104.2,17.8,104.2,17.1z M104.2,19.4c0-0.7,0.4-1.1,1.1-1.1s1.1,0.4,1.1,1.1s-0.4,1.1-1.1,1.1S104.2,20.1,104.2,19.4z M104.2,21.7
			c0-0.7,0.4-1.1,1.1-1.1s1.1,0.4,1.1,1.1s-0.4,1.1-1.1,1.1S104.2,22.4,104.2,21.7z M104.2,24c0-0.7,0.4-1.1,1.1-1.1
			s1.1,0.4,1.1,1.1s-0.4,1.1-1.1,1.1S104.2,24.7,104.2,24z M104.2,26.3c0-0.7,0.4-1.1,1.1-1.1s1.1,0.4,1.1,1.1s-0.4,1.1-1.1,1.1
			S104.2,27,104.2,26.3z"/>
		<path fill="#FFFFFF" d="M109.3,3.4c0-0.7,0.4-1.1,1.1-1.1s1.1,0.4,1.1,1.1s-0.4,1.1-1.1,1.1S109.3,4.1,109.3,3.4z M109.3,5.7
			c0-0.7,0.4-1,1.1-1s1.1,0.4,1.1,1c0,0.7-0.4,1.1-1.1,1.1S109.3,6.4,109.3,5.7z M109.3,8c0-0.7,0.4-1,1.1-1s1.1,0.4,1.1,1
			c0,0.7-0.4,1.1-1.1,1.1S109.3,8.7,109.3,8z M109.3,10.3c0-0.7,0.4-1.1,1.1-1.1s1.1,0.4,1.1,1.1s-0.4,1-1.1,1S109.3,11,109.3,10.3z
			 M109.3,12.6c0-0.7,0.4-1.1,1.1-1.1s1.1,0.4,1.1,1.1s-0.4,1-1.1,1S109.3,13.3,109.3,12.6z M109.3,14.8c0-0.7,0.4-1.1,1.1-1.1
			s1.1,0.4,1.1,1.1s-0.4,1.1-1.1,1.1S109.3,15.5,109.3,14.8z M109.3,17.1c0-0.7,0.4-1.1,1.1-1.1s1.1,0.4,1.1,1.1s-0.4,1.1-1.1,1.1
			S109.3,17.8,109.3,17.1z M109.3,19.4c0-0.7,0.4-1.1,1.1-1.1s1.1,0.4,1.1,1.1s-0.4,1.1-1.1,1.1S109.3,20.1,109.3,19.4z M109.3,21.7
			c0-0.7,0.4-1.1,1.1-1.1s1.1,0.4,1.1,1.1s-0.4,1.1-1.1,1.1S109.3,22.4,109.3,21.7z M109.3,24c0-0.7,0.4-1.1,1.1-1.1
			s1.1,0.4,1.1,1.1s-0.4,1.1-1.1,1.1S109.3,24.7,109.3,24z M109.3,26.3c0-0.7,0.4-1.1,1.1-1.1s1.1,0.4,1.1,1.1s-0.4,1.1-1.1,1.1
			S109.3,27,109.3,26.3z M111.6,3.4c0-0.7,0.4-1.1,1.1-1.1s1.1,0.4,1.1,1.1s-0.4,1.1-1.1,1.1S111.6,4.1,111.6,3.4z M111.6,5.7
			c0-0.7,0.4-1,1.1-1s1.1,0.4,1.1,1c0,0.7-0.4,1.1-1.1,1.1S111.6,6.4,111.6,5.7z M111.6,8c0-0.7,0.4-1,1.1-1s1.1,0.4,1.1,1
			c0,0.7-0.4,1.1-1.1,1.1S111.6,8.7,111.6,8z M111.6,10.3c0-0.7,0.4-1.1,1.1-1.1s1.1,0.4,1.1,1.1s-0.4,1-1.1,1S111.6,11,111.6,10.3z
			 M111.6,12.6c0-0.7,0.4-1.1,1.1-1.1s1.1,0.4,1.1,1.1s-0.4,1-1.1,1S111.6,13.3,111.6,12.6z M111.6,14.8c0-0.7,0.4-1.1,1.1-1.1
			s1.1,0.4,1.1,1.1s-0.4,1.1-1.1,1.1S111.6,15.5,111.6,14.8z M111.6,17.1c0-0.7,0.4-1.1,1.1-1.1s1.1,0.4,1.1,1.1s-0.4,1.1-1.1,1.1
			S111.6,17.8,111.6,17.1z M111.6,19.4c0-0.7,0.4-1.1,1.1-1.1s1.1,0.4,1.1,1.1s-0.4,1.1-1.1,1.1S111.6,20.1,111.6,19.4z M111.6,21.7
			c0-0.7,0.4-1.1,1.1-1.1s1.1,0.4,1.1,1.1s-0.4,1.1-1.1,1.1S111.6,22.4,111.6,21.7z M111.6,24c0-0.7,0.4-1.1,1.1-1.1
			s1.1,0.4,1.1,1.1s-0.4,1.1-1.1,1.1S111.6,24.7,111.6,24z M111.6,26.3c0-0.7,0.4-1.1,1.1-1.1s1.1,0.4,1.1,1.1s-0.4,1.1-1.1,1.1
			S111.6,27,111.6,26.3z M113.9,5.7c0-0.7,0.4-1,1.1-1s1.1,0.4,1.1,1c0,0.7-0.4,1.1-1.1,1.1S113.9,6.4,113.9,5.7z M113.9,8
			c0-0.7,0.4-1,1.1-1s1.1,0.4,1.1,1c0,0.7-0.4,1.1-1.1,1.1S113.9,8.7,113.9,8z M113.9,10.3c0-0.7,0.4-1.1,1.1-1.1s1.1,0.4,1.1,1.1
			s-0.4,1-1.1,1S113.9,11,113.9,10.3z M116.2,8c0-0.7,0.4-1,1.1-1c0.7,0,1.1,0.4,1.1,1c0,0.7-0.4,1.1-1.1,1.1
			C116.5,9,116.2,8.7,116.2,8z M116.2,10.3c0-0.7,0.4-1.1,1.1-1.1c0.7,0,1.1,0.4,1.1,1.1s-0.4,1-1.1,1
			C116.5,11.3,116.2,11,116.2,10.3z M116.2,12.6c0-0.7,0.4-1.1,1.1-1.1c0.7,0,1.1,0.4,1.1,1.1s-0.4,1-1.1,1
			C116.5,13.6,116.2,13.3,116.2,12.6z M118.5,3.4c0-0.7,0.3-1.1,1-1.1s1.1,0.4,1.1,1.1s-0.4,1.1-1.1,1.1
			C118.8,4.4,118.5,4.1,118.5,3.4z M118.5,5.7c0-0.7,0.3-1,1-1s1.1,0.4,1.1,1c0,0.7-0.4,1.1-1.1,1.1C118.8,6.7,118.5,6.4,118.5,5.7z
			 M118.5,8c0-0.7,0.3-1,1-1s1.1,0.4,1.1,1c0,0.7-0.4,1.1-1.1,1.1C118.8,9,118.5,8.7,118.5,8z M118.5,10.3c0-0.7,0.3-1.1,1-1.1
			s1.1,0.4,1.1,1.1s-0.4,1-1.1,1C118.8,11.3,118.5,11,118.5,10.3z M118.5,12.6c0-0.7,0.3-1.1,1-1.1s1.1,0.4,1.1,1.1s-0.4,1-1.1,1
			C118.8,13.6,118.5,13.3,118.5,12.6z M118.5,14.8c0-0.7,0.3-1.1,1-1.1s1.1,0.4,1.1,1.1s-0.4,1.1-1.1,1.1
			C118.8,15.9,118.5,15.5,118.5,14.8z M118.5,17.1c0-0.7,0.3-1.1,1-1.1s1.1,0.4,1.1,1.1s-0.4,1.1-1.1,1.1
			C118.8,18.2,118.5,17.8,118.5,17.1z M118.5,19.4c0-0.7,0.3-1.1,1-1.1s1.1,0.4,1.1,1.1s-0.4,1.1-1.1,1.1
			C118.8,20.5,118.5,20.1,118.5,19.4z M118.5,21.7c0-0.7,0.3-1.1,1-1.1s1.1,0.4,1.1,1.1s-0.4,1.1-1.1,1.1
			C118.8,22.8,118.5,22.4,118.5,21.7z M118.5,24c0-0.7,0.3-1.1,1-1.1s1.1,0.4,1.1,1.1s-0.4,1.1-1.1,1.1
			C118.8,25.1,118.5,24.7,118.5,24z M118.5,26.3c0-0.7,0.3-1.1,1-1.1s1.1,0.4,1.1,1.1s-0.4,1.1-1.1,1.1
			C118.8,27.4,118.5,27,118.5,26.3z M120.7,3.4c0-0.7,0.4-1.1,1-1.1c0.7,0,1.1,0.4,1.1,1.1s-0.4,1.1-1.1,1.1
			C121.1,4.4,120.7,4.1,120.7,3.4z M120.7,5.7c0-0.7,0.4-1,1-1c0.7,0,1.1,0.4,1.1,1c0,0.7-0.4,1.1-1.1,1.1
			C121.1,6.7,120.7,6.4,120.7,5.7z M120.7,8c0-0.7,0.4-1,1-1c0.7,0,1.1,0.4,1.1,1c0,0.7-0.4,1.1-1.1,1.1C121.1,9,120.7,8.7,120.7,8z
			 M120.7,10.3c0-0.7,0.4-1.1,1-1.1c0.7,0,1.1,0.4,1.1,1.1s-0.4,1-1.1,1C121.1,11.3,120.7,11,120.7,10.3z M120.7,12.6
			c0-0.7,0.4-1.1,1-1.1c0.7,0,1.1,0.4,1.1,1.1s-0.4,1-1.1,1C121.1,13.6,120.7,13.3,120.7,12.6z M120.7,14.8c0-0.7,0.4-1.1,1-1.1
			c0.7,0,1.1,0.4,1.1,1.1s-0.4,1.1-1.1,1.1C121.1,15.9,120.7,15.5,120.7,14.8z M120.7,17.1c0-0.7,0.4-1.1,1-1.1
			c0.7,0,1.1,0.4,1.1,1.1s-0.4,1.1-1.1,1.1C121.1,18.2,120.7,17.8,120.7,17.1z M120.7,19.4c0-0.7,0.4-1.1,1-1.1
			c0.7,0,1.1,0.4,1.1,1.1s-0.4,1.1-1.1,1.1C121.1,20.5,120.7,20.1,120.7,19.4z M120.7,21.7c0-0.7,0.4-1.1,1-1.1
			c0.7,0,1.1,0.4,1.1,1.1s-0.4,1.1-1.1,1.1C121.1,22.8,120.7,22.4,120.7,21.7z M120.7,24c0-0.7,0.4-1.1,1-1.1c0.7,0,1.1,0.4,1.1,1.1
			s-0.4,1.1-1.1,1.1C121.1,25.1,120.7,24.7,120.7,24z M120.7,26.3c0-0.7,0.4-1.1,1-1.1c0.7,0,1.1,0.4,1.1,1.1s-0.4,1.1-1.1,1.1
			C121.1,27.4,120.7,27,120.7,26.3z"/>
		<path fill="#FFFFFF" d="M125.8,3.4c0-0.7,0.4-1.1,1.1-1.1c0.7,0,1.1,0.4,1.1,1.1s-0.4,1.1-1.1,1.1C126.1,4.4,125.8,4.1,125.8,3.4z
			 M125.8,5.7c0-0.7,0.4-1,1.1-1c0.7,0,1.1,0.4,1.1,1c0,0.7-0.4,1.1-1.1,1.1C126.1,6.7,125.8,6.4,125.8,5.7z M125.8,8
			c0-0.7,0.4-1,1.1-1c0.7,0,1.1,0.4,1.1,1c0,0.7-0.4,1.1-1.1,1.1C126.1,9,125.8,8.7,125.8,8z M125.8,10.3c0-0.7,0.4-1.1,1.1-1.1
			c0.7,0,1.1,0.4,1.1,1.1s-0.4,1-1.1,1C126.1,11.3,125.8,11,125.8,10.3z M125.8,12.6c0-0.7,0.4-1.1,1.1-1.1c0.7,0,1.1,0.4,1.1,1.1
			s-0.4,1-1.1,1C126.1,13.6,125.8,13.3,125.8,12.6z M125.8,14.8c0-0.7,0.4-1.1,1.1-1.1c0.7,0,1.1,0.4,1.1,1.1s-0.4,1.1-1.1,1.1
			C126.1,15.9,125.8,15.5,125.8,14.8z M125.8,17.1c0-0.7,0.4-1.1,1.1-1.1c0.7,0,1.1,0.4,1.1,1.1s-0.4,1.1-1.1,1.1
			C126.1,18.2,125.8,17.8,125.8,17.1z M125.8,19.4c0-0.7,0.4-1.1,1.1-1.1c0.7,0,1.1,0.4,1.1,1.1s-0.4,1.1-1.1,1.1
			C126.1,20.5,125.8,20.1,125.8,19.4z M125.8,21.7c0-0.7,0.4-1.1,1.1-1.1c0.7,0,1.1,0.4,1.1,1.1s-0.4,1.1-1.1,1.1
			C126.1,22.8,125.8,22.4,125.8,21.7z M125.8,24c0-0.7,0.4-1.1,1.1-1.1c0.7,0,1.1,0.4,1.1,1.1s-0.4,1.1-1.1,1.1
			C126.1,25.1,125.8,24.7,125.8,24z M125.8,26.3c0-0.7,0.4-1.1,1.1-1.1c0.7,0,1.1,0.4,1.1,1.1s-0.4,1.1-1.1,1.1
			C126.1,27.4,125.8,27,125.8,26.3z M128.1,3.4c0-0.7,0.4-1.1,1.1-1.1c0.7,0,1.1,0.4,1.1,1.1s-0.4,1.1-1.1,1.1
			C128.4,4.4,128.1,4.1,128.1,3.4z M128.1,5.7c0-0.7,0.4-1,1.1-1c0.7,0,1.1,0.4,1.1,1c0,0.7-0.4,1.1-1.1,1.1
			C128.4,6.7,128.1,6.4,128.1,5.7z M128.1,8c0-0.7,0.4-1,1.1-1c0.7,0,1.1,0.4,1.1,1c0,0.7-0.4,1.1-1.1,1.1
			C128.4,9,128.1,8.7,128.1,8z M128.1,10.3c0-0.7,0.4-1.1,1.1-1.1c0.7,0,1.1,0.4,1.1,1.1s-0.4,1-1.1,1
			C128.4,11.3,128.1,11,128.1,10.3z M128.1,12.6c0-0.7,0.4-1.1,1.1-1.1c0.7,0,1.1,0.4,1.1,1.1s-0.4,1-1.1,1
			C128.4,13.6,128.1,13.3,128.1,12.6z M128.1,14.8c0-0.7,0.4-1.1,1.1-1.1c0.7,0,1.1,0.4,1.1,1.1s-0.4,1.1-1.1,1.1
			C128.4,15.9,128.1,15.5,128.1,14.8z M128.1,17.1c0-0.7,0.4-1.1,1.1-1.1c0.7,0,1.1,0.4,1.1,1.1s-0.4,1.1-1.1,1.1
			C128.4,18.2,128.1,17.8,128.1,17.1z M128.1,19.4c0-0.7,0.4-1.1,1.1-1.1c0.7,0,1.1,0.4,1.1,1.1s-0.4,1.1-1.1,1.1
			C128.4,20.5,128.1,20.1,128.1,19.4z M128.1,21.7c0-0.7,0.4-1.1,1.1-1.1c0.7,0,1.1,0.4,1.1,1.1s-0.4,1.1-1.1,1.1
			C128.4,22.8,128.1,22.4,128.1,21.7z M128.1,24c0-0.7,0.4-1.1,1.1-1.1c0.7,0,1.1,0.4,1.1,1.1s-0.4,1.1-1.1,1.1
			C128.4,25.1,128.1,24.7,128.1,24z M128.1,26.3c0-0.7,0.4-1.1,1.1-1.1c0.7,0,1.1,0.4,1.1,1.1s-0.4,1.1-1.1,1.1
			C128.4,27.4,128.1,27,128.1,26.3z"/>
		<path fill="#FFFFFF" d="M133.1,5.7c0-0.7,0.4-1,1.1-1c0.7,0,1.1,0.4,1.1,1c0,0.7-0.4,1.1-1.1,1.1C133.5,6.7,133.1,6.4,133.1,5.7z
			 M133.1,8c0-0.7,0.4-1,1.1-1c0.7,0,1.1,0.4,1.1,1c0,0.7-0.4,1.1-1.1,1.1C133.5,9,133.1,8.7,133.1,8z M133.1,10.3
			c0-0.7,0.4-1.1,1.1-1.1c0.7,0,1.1,0.4,1.1,1.1s-0.4,1-1.1,1C133.5,11.3,133.1,11,133.1,10.3z M133.1,12.6c0-0.7,0.4-1.1,1.1-1.1
			c0.7,0,1.1,0.4,1.1,1.1s-0.4,1-1.1,1C133.5,13.6,133.1,13.3,133.1,12.6z M133.1,14.8c0-0.7,0.4-1.1,1.1-1.1c0.7,0,1.1,0.4,1.1,1.1
			s-0.4,1.1-1.1,1.1C133.5,15.9,133.1,15.5,133.1,14.8z M133.1,17.1c0-0.7,0.4-1.1,1.1-1.1c0.7,0,1.1,0.4,1.1,1.1s-0.4,1.1-1.1,1.1
			C133.5,18.2,133.1,17.8,133.1,17.1z M133.1,19.4c0-0.7,0.4-1.1,1.1-1.1c0.7,0,1.1,0.4,1.1,1.1s-0.4,1.1-1.1,1.1
			C133.5,20.5,133.1,20.1,133.1,19.4z M133.1,21.7c0-0.7,0.4-1.1,1.1-1.1c0.7,0,1.1,0.4,1.1,1.1s-0.4,1.1-1.1,1.1
			C133.5,22.8,133.1,22.4,133.1,21.7z M133.1,24c0-0.7,0.4-1.1,1.1-1.1c0.7,0,1.1,0.4,1.1,1.1s-0.4,1.1-1.1,1.1
			C133.5,25.1,133.1,24.7,133.1,24z M135.4,3.4c0-0.7,0.4-1.1,1.1-1.1c0.7,0,1.1,0.4,1.1,1.1s-0.4,1.1-1.1,1.1
			C135.8,4.4,135.4,4.1,135.4,3.4z M135.4,5.7c0-0.7,0.4-1,1.1-1c0.7,0,1.1,0.4,1.1,1c0,0.7-0.4,1.1-1.1,1.1
			C135.8,6.7,135.4,6.4,135.4,5.7z M135.4,8c0-0.7,0.4-1,1.1-1c0.7,0,1.1,0.4,1.1,1c0,0.7-0.4,1.1-1.1,1.1
			C135.8,9,135.4,8.7,135.4,8z M135.4,10.3c0-0.7,0.4-1.1,1.1-1.1c0.7,0,1.1,0.4,1.1,1.1s-0.4,1-1.1,1
			C135.8,11.3,135.4,11,135.4,10.3z M135.4,12.6c0-0.7,0.4-1.1,1.1-1.1c0.7,0,1.1,0.4,1.1,1.1s-0.4,1-1.1,1
			C135.8,13.6,135.4,13.3,135.4,12.6z M135.4,14.8c0-0.7,0.4-1.1,1.1-1.1c0.7,0,1.1,0.4,1.1,1.1s-0.4,1.1-1.1,1.1
			C135.8,15.9,135.4,15.5,135.4,14.8z M135.4,17.1c0-0.7,0.4-1.1,1.1-1.1c0.7,0,1.1,0.4,1.1,1.1s-0.4,1.1-1.1,1.1
			C135.8,18.2,135.4,17.8,135.4,17.1z M135.4,19.4c0-0.7,0.4-1.1,1.1-1.1c0.7,0,1.1,0.4,1.1,1.1s-0.4,1.1-1.1,1.1
			C135.8,20.5,135.4,20.1,135.4,19.4z M135.4,21.7c0-0.7,0.4-1.1,1.1-1.1c0.7,0,1.1,0.4,1.1,1.1s-0.4,1.1-1.1,1.1
			C135.8,22.8,135.4,22.4,135.4,21.7z M135.4,24c0-0.7,0.4-1.1,1.1-1.1c0.7,0,1.1,0.4,1.1,1.1s-0.4,1.1-1.1,1.1
			C135.8,25.1,135.4,24.7,135.4,24z M135.4,26.3c0-0.7,0.4-1.1,1.1-1.1c0.7,0,1.1,0.4,1.1,1.1s-0.4,1.1-1.1,1.1
			C135.8,27.4,135.4,27,135.4,26.3z M137.7,3.4c0-0.7,0.4-1.1,1.1-1.1c0.7,0,1.1,0.4,1.1,1.1s-0.4,1.1-1.1,1.1
			C138.1,4.4,137.7,4.1,137.7,3.4z M137.7,5.7c0-0.7,0.4-1,1.1-1c0.7,0,1.1,0.4,1.1,1c0,0.7-0.4,1.1-1.1,1.1
			C138.1,6.7,137.7,6.4,137.7,5.7z M137.7,24c0-0.7,0.4-1.1,1.1-1.1c0.7,0,1.1,0.4,1.1,1.1s-0.4,1.1-1.1,1.1
			C138.1,25.1,137.7,24.7,137.7,24z M137.7,26.3c0-0.7,0.4-1.1,1.1-1.1c0.7,0,1.1,0.4,1.1,1.1s-0.4,1.1-1.1,1.1S137.7,27,137.7,26.3
			z M140,3.4c0-0.7,0.4-1.1,1.1-1.1c0.7,0,1.1,0.4,1.1,1.1s-0.4,1.1-1.1,1.1C140.3,4.4,140,4.1,140,3.4z M140,5.7c0-0.7,0.4-1,1.1-1
			c0.7,0,1.1,0.4,1.1,1c0,0.7-0.4,1.1-1.1,1.1C140.3,6.7,140,6.4,140,5.7z M140,24c0-0.7,0.4-1.1,1.1-1.1c0.7,0,1.1,0.4,1.1,1.1
			s-0.4,1.1-1.1,1.1C140.3,25.1,140,24.7,140,24z M140,26.3c0-0.7,0.4-1.1,1.1-1.1c0.7,0,1.1,0.4,1.1,1.1s-0.4,1.1-1.1,1.1
			C140.3,27.4,140,27,140,26.3z M142.3,3.4c0-0.7,0.3-1.1,1-1.1s1.1,0.4,1.1,1.1s-0.4,1.1-1.1,1.1C142.6,4.4,142.3,4.1,142.3,3.4z
			 M142.3,5.7c0-0.7,0.3-1,1-1s1.1,0.4,1.1,1c0,0.7-0.4,1.1-1.1,1.1C142.6,6.7,142.3,6.4,142.3,5.7z M142.3,8c0-0.7,0.3-1,1-1
			s1.1,0.4,1.1,1c0,0.7-0.4,1.1-1.1,1.1C142.6,9,142.3,8.7,142.3,8z M142.3,10.3c0-0.7,0.3-1.1,1-1.1s1.1,0.4,1.1,1.1s-0.4,1-1.1,1
			S142.3,11,142.3,10.3z M142.3,19.4c0-0.7,0.3-1.1,1-1.1s1.1,0.4,1.1,1.1s-0.4,1.1-1.1,1.1S142.3,20.1,142.3,19.4z M142.3,21.7
			c0-0.7,0.3-1.1,1-1.1s1.1,0.4,1.1,1.1s-0.4,1.1-1.1,1.1S142.3,22.4,142.3,21.7z M142.3,24c0-0.7,0.3-1.1,1-1.1s1.1,0.4,1.1,1.1
			s-0.4,1.1-1.1,1.1C142.6,25.1,142.3,24.7,142.3,24z M142.3,26.3c0-0.7,0.3-1.1,1-1.1s1.1,0.4,1.1,1.1s-0.4,1.1-1.1,1.1
			S142.3,27,142.3,26.3z M144.6,5.7c0-0.7,0.4-1,1-1c0.7,0,1.1,0.4,1.1,1c0,0.7-0.4,1.1-1.1,1.1C144.9,6.7,144.6,6.4,144.6,5.7z
			 M144.6,8c0-0.7,0.4-1,1-1c0.7,0,1.1,0.4,1.1,1c0,0.7-0.4,1.1-1.1,1.1C144.9,9,144.6,8.7,144.6,8z M144.6,10.3
			c0-0.7,0.4-1.1,1-1.1c0.7,0,1.1,0.4,1.1,1.1s-0.4,1-1.1,1C144.9,11.3,144.6,11,144.6,10.3z M144.6,19.4c0-0.7,0.4-1.1,1-1.1
			c0.7,0,1.1,0.4,1.1,1.1s-0.4,1.1-1.1,1.1C144.9,20.5,144.6,20.1,144.6,19.4z M144.6,21.7c0-0.7,0.4-1.1,1-1.1
			c0.7,0,1.1,0.4,1.1,1.1s-0.4,1.1-1.1,1.1C144.9,22.8,144.6,22.4,144.6,21.7z M144.6,24c0-0.7,0.4-1.1,1-1.1c0.7,0,1.1,0.4,1.1,1.1
			s-0.4,1.1-1.1,1.1C144.9,25.1,144.6,24.7,144.6,24z"/>
		<path fill="#FFFFFF" d="M149.6,5.7c0-0.7,0.4-1,1.1-1c0.7,0,1.1,0.4,1.1,1c0,0.7-0.4,1.1-1.1,1.1C150,6.7,149.6,6.4,149.6,5.7z
			 M149.6,8c0-0.7,0.4-1,1.1-1c0.7,0,1.1,0.4,1.1,1c0,0.7-0.4,1.1-1.1,1.1C150,9,149.6,8.7,149.6,8z M149.6,10.3
			c0-0.7,0.4-1.1,1.1-1.1c0.7,0,1.1,0.4,1.1,1.1s-0.4,1-1.1,1C150,11.3,149.6,11,149.6,10.3z M149.6,12.6c0-0.7,0.4-1.1,1.1-1.1
			c0.7,0,1.1,0.4,1.1,1.1s-0.4,1-1.1,1C150,13.6,149.6,13.3,149.6,12.6z M149.6,14.8c0-0.7,0.4-1.1,1.1-1.1c0.7,0,1.1,0.4,1.1,1.1
			s-0.4,1.1-1.1,1.1C150,15.9,149.6,15.5,149.6,14.8z M149.6,17.1c0-0.7,0.4-1.1,1.1-1.1c0.7,0,1.1,0.4,1.1,1.1s-0.4,1.1-1.1,1.1
			C150,18.2,149.6,17.8,149.6,17.1z M149.6,19.4c0-0.7,0.4-1.1,1.1-1.1c0.7,0,1.1,0.4,1.1,1.1s-0.4,1.1-1.1,1.1
			C150,20.5,149.6,20.1,149.6,19.4z M149.6,21.7c0-0.7,0.4-1.1,1.1-1.1c0.7,0,1.1,0.4,1.1,1.1s-0.4,1.1-1.1,1.1
			C150,22.8,149.6,22.4,149.6,21.7z M149.6,24c0-0.7,0.4-1.1,1.1-1.1c0.7,0,1.1,0.4,1.1,1.1s-0.4,1.1-1.1,1.1
			C150,25.1,149.6,24.7,149.6,24z M149.6,26.3c0-0.7,0.4-1.1,1.1-1.1c0.7,0,1.1,0.4,1.1,1.1s-0.4,1.1-1.1,1.1
			C150,27.4,149.6,27,149.6,26.3z M151.9,3.4c0-0.7,0.4-1.1,1.1-1.1c0.7,0,1.1,0.4,1.1,1.1s-0.4,1.1-1.1,1.1
			C152.2,4.4,151.9,4.1,151.9,3.4z M151.9,5.7c0-0.7,0.4-1,1.1-1c0.7,0,1.1,0.4,1.1,1c0,0.7-0.4,1.1-1.1,1.1
			C152.2,6.7,151.9,6.4,151.9,5.7z M151.9,8c0-0.7,0.4-1,1.1-1c0.7,0,1.1,0.4,1.1,1c0,0.7-0.4,1.1-1.1,1.1
			C152.2,9,151.9,8.7,151.9,8z M151.9,10.3c0-0.7,0.4-1.1,1.1-1.1c0.7,0,1.1,0.4,1.1,1.1s-0.4,1-1.1,1
			C152.2,11.3,151.9,11,151.9,10.3z M151.9,12.6c0-0.7,0.4-1.1,1.1-1.1c0.7,0,1.1,0.4,1.1,1.1s-0.4,1-1.1,1
			C152.2,13.6,151.9,13.3,151.9,12.6z M151.9,14.8c0-0.7,0.4-1.1,1.1-1.1c0.7,0,1.1,0.4,1.1,1.1s-0.4,1.1-1.1,1.1
			C152.2,15.9,151.9,15.5,151.9,14.8z M151.9,17.1c0-0.7,0.4-1.1,1.1-1.1c0.7,0,1.1,0.4,1.1,1.1s-0.4,1.1-1.1,1.1
			C152.2,18.2,151.9,17.8,151.9,17.1z M151.9,19.4c0-0.7,0.4-1.1,1.1-1.1c0.7,0,1.1,0.4,1.1,1.1s-0.4,1.1-1.1,1.1
			C152.2,20.5,151.9,20.1,151.9,19.4z M151.9,21.7c0-0.7,0.4-1.1,1.1-1.1c0.7,0,1.1,0.4,1.1,1.1s-0.4,1.1-1.1,1.1
			C152.2,22.8,151.9,22.4,151.9,21.7z M151.9,24c0-0.7,0.4-1.1,1.1-1.1c0.7,0,1.1,0.4,1.1,1.1s-0.4,1.1-1.1,1.1
			C152.2,25.1,151.9,24.7,151.9,24z M151.9,26.3c0-0.7,0.4-1.1,1.1-1.1c0.7,0,1.1,0.4,1.1,1.1s-0.4,1.1-1.1,1.1
			C152.2,27.4,151.9,27,151.9,26.3z M154.2,3.4c0-0.7,0.4-1.1,1.1-1.1c0.7,0,1.1,0.4,1.1,1.1s-0.4,1.1-1.1,1.1
			C154.5,4.4,154.2,4.1,154.2,3.4z M154.2,5.7c0-0.7,0.4-1,1.1-1c0.7,0,1.1,0.4,1.1,1c0,0.7-0.4,1.1-1.1,1.1
			C154.5,6.7,154.2,6.4,154.2,5.7z M154.2,19.4c0-0.7,0.4-1.1,1.1-1.1c0.7,0,1.1,0.4,1.1,1.1s-0.4,1.1-1.1,1.1
			C154.5,20.5,154.2,20.1,154.2,19.4z M154.2,21.7c0-0.7,0.4-1.1,1.1-1.1c0.7,0,1.1,0.4,1.1,1.1s-0.4,1.1-1.1,1.1
			C154.5,22.8,154.2,22.4,154.2,21.7z M156.5,3.4c0-0.7,0.4-1.1,1.1-1.1c0.7,0,1.1,0.4,1.1,1.1s-0.4,1.1-1.1,1.1
			C156.8,4.4,156.5,4.1,156.5,3.4z M156.5,5.7c0-0.7,0.4-1,1.1-1c0.7,0,1.1,0.4,1.1,1c0,0.7-0.4,1.1-1.1,1.1
			C156.8,6.7,156.5,6.4,156.5,5.7z M156.5,19.4c0-0.7,0.4-1.1,1.1-1.1c0.7,0,1.1,0.4,1.1,1.1s-0.4,1.1-1.1,1.1
			C156.8,20.5,156.5,20.1,156.5,19.4z M156.5,21.7c0-0.7,0.4-1.1,1.1-1.1c0.7,0,1.1,0.4,1.1,1.1s-0.4,1.1-1.1,1.1
			C156.8,22.8,156.5,22.4,156.5,21.7z M158.8,3.4c0-0.7,0.3-1.1,1-1.1s1.1,0.4,1.1,1.1s-0.4,1.1-1.1,1.1
			C159.1,4.4,158.8,4.1,158.8,3.4z M158.8,5.7c0-0.7,0.3-1,1-1s1.1,0.4,1.1,1c0,0.7-0.4,1.1-1.1,1.1C159.1,6.7,158.8,6.4,158.8,5.7z
			 M158.8,8c0-0.7,0.3-1,1-1s1.1,0.4,1.1,1c0,0.7-0.4,1.1-1.1,1.1C159.1,9,158.8,8.7,158.8,8z M158.8,10.3c0-0.7,0.3-1.1,1-1.1
			s1.1,0.4,1.1,1.1s-0.4,1-1.1,1S158.8,11,158.8,10.3z M158.8,12.6c0-0.7,0.3-1.1,1-1.1s1.1,0.4,1.1,1.1s-0.4,1-1.1,1
			S158.8,13.3,158.8,12.6z M158.8,14.8c0-0.7,0.3-1.1,1-1.1s1.1,0.4,1.1,1.1s-0.4,1.1-1.1,1.1S158.8,15.5,158.8,14.8z M158.8,17.1
			c0-0.7,0.3-1.1,1-1.1s1.1,0.4,1.1,1.1s-0.4,1.1-1.1,1.1S158.8,17.8,158.8,17.1z M158.8,19.4c0-0.7,0.3-1.1,1-1.1s1.1,0.4,1.1,1.1
			s-0.4,1.1-1.1,1.1S158.8,20.1,158.8,19.4z M158.8,21.7c0-0.7,0.3-1.1,1-1.1s1.1,0.4,1.1,1.1s-0.4,1.1-1.1,1.1
			S158.8,22.4,158.8,21.7z M158.8,24c0-0.7,0.3-1.1,1-1.1s1.1,0.4,1.1,1.1s-0.4,1.1-1.1,1.1C159.1,25.1,158.8,24.7,158.8,24z
			 M158.8,26.3c0-0.7,0.3-1.1,1-1.1s1.1,0.4,1.1,1.1s-0.4,1.1-1.1,1.1S158.8,27,158.8,26.3z M161.1,5.7c0-0.7,0.4-1,1-1
			c0.7,0,1.1,0.4,1.1,1c0,0.7-0.4,1.1-1.1,1.1C161.4,6.7,161.1,6.4,161.1,5.7z M161.1,8c0-0.7,0.4-1,1-1c0.7,0,1.1,0.4,1.1,1
			c0,0.7-0.4,1.1-1.1,1.1C161.4,9,161.1,8.7,161.1,8z M161.1,10.3c0-0.7,0.4-1.1,1-1.1c0.7,0,1.1,0.4,1.1,1.1s-0.4,1-1.1,1
			C161.4,11.3,161.1,11,161.1,10.3z M161.1,12.6c0-0.7,0.4-1.1,1-1.1c0.7,0,1.1,0.4,1.1,1.1s-0.4,1-1.1,1
			C161.4,13.6,161.1,13.3,161.1,12.6z M161.1,14.8c0-0.7,0.4-1.1,1-1.1c0.7,0,1.1,0.4,1.1,1.1s-0.4,1.1-1.1,1.1
			C161.4,15.9,161.1,15.5,161.1,14.8z M161.1,17.1c0-0.7,0.4-1.1,1-1.1c0.7,0,1.1,0.4,1.1,1.1s-0.4,1.1-1.1,1.1
			C161.4,18.2,161.1,17.8,161.1,17.1z M161.1,19.4c0-0.7,0.4-1.1,1-1.1c0.7,0,1.1,0.4,1.1,1.1s-0.4,1.1-1.1,1.1
			C161.4,20.5,161.1,20.1,161.1,19.4z M161.1,21.7c0-0.7,0.4-1.1,1-1.1c0.7,0,1.1,0.4,1.1,1.1s-0.4,1.1-1.1,1.1
			C161.4,22.8,161.1,22.4,161.1,21.7z M161.1,24c0-0.7,0.4-1.1,1-1.1c0.7,0,1.1,0.4,1.1,1.1s-0.4,1.1-1.1,1.1
			C161.4,25.1,161.1,24.7,161.1,24z M161.1,26.3c0-0.7,0.4-1.1,1-1.1c0.7,0,1.1,0.4,1.1,1.1s-0.4,1.1-1.1,1.1
			C161.4,27.4,161.1,27,161.1,26.3z"/>
		<path fill="#FFFFFF" d="M166.1,5.7c0-0.7,0.4-1,1.1-1c0.7,0,1.1,0.4,1.1,1c0,0.7-0.4,1.1-1.1,1.1C166.4,6.7,166.1,6.4,166.1,5.7z
			 M166.1,8c0-0.7,0.4-1,1.1-1c0.7,0,1.1,0.4,1.1,1c0,0.7-0.4,1.1-1.1,1.1C166.4,9,166.1,8.7,166.1,8z M166.1,10.3
			c0-0.7,0.4-1.1,1.1-1.1c0.7,0,1.1,0.4,1.1,1.1s-0.4,1-1.1,1C166.4,11.3,166.1,11,166.1,10.3z M166.1,12.6c0-0.7,0.4-1.1,1.1-1.1
			c0.7,0,1.1,0.4,1.1,1.1s-0.4,1-1.1,1C166.4,13.6,166.1,13.3,166.1,12.6z M166.1,14.8c0-0.7,0.4-1.1,1.1-1.1c0.7,0,1.1,0.4,1.1,1.1
			s-0.4,1.1-1.1,1.1C166.4,15.9,166.1,15.5,166.1,14.8z M166.1,21.7c0-0.7,0.4-1.1,1.1-1.1c0.7,0,1.1,0.4,1.1,1.1s-0.4,1.1-1.1,1.1
			C166.4,22.8,166.1,22.4,166.1,21.7z M166.1,24c0-0.7,0.4-1.1,1.1-1.1c0.7,0,1.1,0.4,1.1,1.1s-0.4,1.1-1.1,1.1
			C166.4,25.1,166.1,24.7,166.1,24z M168.4,3.4c0-0.7,0.4-1.1,1.1-1.1c0.7,0,1.1,0.4,1.1,1.1s-0.4,1.1-1.1,1.1
			C168.7,4.4,168.4,4.1,168.4,3.4z M168.4,5.7c0-0.7,0.4-1,1.1-1c0.7,0,1.1,0.4,1.1,1c0,0.7-0.4,1.1-1.1,1.1
			C168.7,6.7,168.4,6.4,168.4,5.7z M168.4,8c0-0.7,0.4-1,1.1-1c0.7,0,1.1,0.4,1.1,1c0,0.7-0.4,1.1-1.1,1.1
			C168.7,9,168.4,8.7,168.4,8z M168.4,10.3c0-0.7,0.4-1.1,1.1-1.1c0.7,0,1.1,0.4,1.1,1.1s-0.4,1-1.1,1
			C168.7,11.3,168.4,11,168.4,10.3z M168.4,12.6c0-0.7,0.4-1.1,1.1-1.1c0.7,0,1.1,0.4,1.1,1.1s-0.4,1-1.1,1
			C168.7,13.6,168.4,13.3,168.4,12.6z M168.4,14.8c0-0.7,0.4-1.1,1.1-1.1c0.7,0,1.1,0.4,1.1,1.1s-0.4,1.1-1.1,1.1
			C168.7,15.9,168.4,15.5,168.4,14.8z M168.4,17.1c0-0.7,0.4-1.1,1.1-1.1c0.7,0,1.1,0.4,1.1,1.1s-0.4,1.1-1.1,1.1
			C168.7,18.2,168.4,17.8,168.4,17.1z M168.4,21.7c0-0.7,0.4-1.1,1.1-1.1c0.7,0,1.1,0.4,1.1,1.1s-0.4,1.1-1.1,1.1
			C168.7,22.8,168.4,22.4,168.4,21.7z M168.4,24c0-0.7,0.4-1.1,1.1-1.1c0.7,0,1.1,0.4,1.1,1.1s-0.4,1.1-1.1,1.1
			C168.7,25.1,168.4,24.7,168.4,24z M168.4,26.3c0-0.7,0.4-1.1,1.1-1.1c0.7,0,1.1,0.4,1.1,1.1s-0.4,1.1-1.1,1.1
			C168.7,27.4,168.4,27,168.4,26.3z M170.7,3.4c0-0.7,0.4-1.1,1.1-1.1s1.1,0.4,1.1,1.1s-0.4,1.1-1.1,1.1S170.7,4.1,170.7,3.4z
			 M170.7,5.7c0-0.7,0.4-1,1.1-1s1.1,0.4,1.1,1c0,0.7-0.4,1.1-1.1,1.1S170.7,6.4,170.7,5.7z M170.7,14.8c0-0.7,0.4-1.1,1.1-1.1
			s1.1,0.4,1.1,1.1s-0.4,1.1-1.1,1.1S170.7,15.5,170.7,14.8z M170.7,17.1c0-0.7,0.4-1.1,1.1-1.1s1.1,0.4,1.1,1.1s-0.4,1.1-1.1,1.1
			S170.7,17.8,170.7,17.1z M170.7,24c0-0.7,0.4-1.1,1.1-1.1s1.1,0.4,1.1,1.1s-0.4,1.1-1.1,1.1S170.7,24.7,170.7,24z M170.7,26.3
			c0-0.7,0.4-1.1,1.1-1.1s1.1,0.4,1.1,1.1s-0.4,1.1-1.1,1.1S170.7,27,170.7,26.3z M173,3.4c0-0.7,0.4-1.1,1.1-1.1
			c0.7,0,1.1,0.4,1.1,1.1s-0.4,1.1-1.1,1.1C173.3,4.4,173,4.1,173,3.4z M173,5.7c0-0.7,0.4-1,1.1-1c0.7,0,1.1,0.4,1.1,1
			c0,0.7-0.4,1.1-1.1,1.1C173.3,6.7,173,6.4,173,5.7z M173,14.8c0-0.7,0.4-1.1,1.1-1.1c0.7,0,1.1,0.4,1.1,1.1s-0.4,1.1-1.1,1.1
			C173.3,15.9,173,15.5,173,14.8z M173,17.1c0-0.7,0.4-1.1,1.1-1.1c0.7,0,1.1,0.4,1.1,1.1s-0.4,1.1-1.1,1.1
			C173.3,18.2,173,17.8,173,17.1z M173,24c0-0.7,0.4-1.1,1.1-1.1c0.7,0,1.1,0.4,1.1,1.1s-0.4,1.1-1.1,1.1
			C173.3,25.1,173,24.7,173,24z M173,26.3c0-0.7,0.4-1.1,1.1-1.1c0.7,0,1.1,0.4,1.1,1.1s-0.4,1.1-1.1,1.1
			C173.3,27.4,173,27,173,26.3z M175.3,3.4c0-0.7,0.3-1.1,1-1.1s1.1,0.4,1.1,1.1s-0.4,1.1-1.1,1.1C175.6,4.4,175.3,4.1,175.3,3.4z
			 M175.3,5.7c0-0.7,0.3-1,1-1s1.1,0.4,1.1,1c0,0.7-0.4,1.1-1.1,1.1C175.6,6.7,175.3,6.4,175.3,5.7z M175.3,8c0-0.7,0.3-1,1-1
			s1.1,0.4,1.1,1c0,0.7-0.4,1.1-1.1,1.1C175.6,9,175.3,8.7,175.3,8z M175.3,10.3c0-0.7,0.3-1,1-1s1.1,0.4,1.1,1
			c0,0.7-0.4,1.1-1.1,1.1C175.6,11.3,175.3,11,175.3,10.3z M175.3,14.8c0-0.7,0.3-1.1,1-1.1s1.1,0.4,1.1,1.1s-0.4,1.1-1.1,1.1
			S175.3,15.5,175.3,14.8z M175.3,17.1c0-0.7,0.3-1.1,1-1.1s1.1,0.4,1.1,1.1s-0.4,1.1-1.1,1.1S175.3,17.8,175.3,17.1z M175.3,19.4
			c0-0.7,0.3-1.1,1-1.1s1.1,0.4,1.1,1.1s-0.4,1.1-1.1,1.1S175.3,20.1,175.3,19.4z M175.3,21.7c0-0.7,0.3-1.1,1-1.1s1.1,0.4,1.1,1.1
			s-0.4,1.1-1.1,1.1S175.3,22.4,175.3,21.7z M175.3,24c0-0.7,0.3-1.1,1-1.1s1.1,0.4,1.1,1.1s-0.4,1.1-1.1,1.1
			C175.6,25.1,175.3,24.7,175.3,24z M175.3,26.3c0-0.7,0.3-1.1,1-1.1s1.1,0.4,1.1,1.1s-0.4,1.1-1.1,1.1S175.3,27,175.3,26.3z
			 M177.5,5.7c0-0.7,0.4-1,1-1c0.7,0,1.1,0.4,1.1,1c0,0.7-0.4,1.1-1.1,1.1C177.9,6.7,177.5,6.4,177.5,5.7z M177.5,8c0-0.7,0.4-1,1-1
			c0.7,0,1.1,0.4,1.1,1c0,0.7-0.4,1.1-1.1,1.1C177.9,9,177.5,8.7,177.5,8z M177.5,10.3c0-0.7,0.4-1,1-1c0.7,0,1.1,0.4,1.1,1
			c0,0.7-0.4,1.1-1.1,1.1C177.9,11.3,177.5,11,177.5,10.3z M177.5,17.1c0-0.7,0.4-1.1,1-1.1c0.7,0,1.1,0.4,1.1,1.1s-0.4,1.1-1.1,1.1
			C177.9,18.2,177.5,17.8,177.5,17.1z M177.5,19.4c0-0.7,0.4-1.1,1-1.1c0.7,0,1.1,0.4,1.1,1.1s-0.4,1.1-1.1,1.1
			C177.9,20.5,177.5,20.1,177.5,19.4z M177.5,21.7c0-0.7,0.4-1.1,1-1.1c0.7,0,1.1,0.4,1.1,1.1s-0.4,1.1-1.1,1.1
			C177.9,22.8,177.5,22.4,177.5,21.7z M177.5,24c0-0.7,0.4-1.1,1-1.1c0.7,0,1.1,0.4,1.1,1.1s-0.4,1.1-1.1,1.1
			C177.9,25.1,177.5,24.7,177.5,24z"/>
	</g>
</g>
</svg>
