<svg xmlns="http://www.w3.org/2000/svg" xmlns:xlink="http://www.w3.org/1999/xlink" width="235.5" height="353.1" viewBox="0 0 235.5 353.1">
  <defs>
    <circle id="SVGID_1_" cx="117.7" cy="176.6" r="102"/>
  </defs>
  <clipPath id="SVGID_2_">
    <use xlink:href="#SVGID_1_" overflow="visible"/>
  </clipPath>
  <circle clip-path="url(#SVGID_2_)" fill="#3E96D2" cx="117.7" cy="176.6" r="102"/>
  <defs>
    <circle id="SVGID_3_" cx="117.7" cy="176.6" r="102"/>
  </defs>
  <clipPath id="SVGID_4_">
    <use xlink:href="#SVGID_3_" overflow="visible"/>
  </clipPath>
  <g clip-path="url(#SVGID_4_)">
    <g id="XMLID_1_">
      <path fill="#3085C0" d="M235.4 117.7c0 21.5-5.7 41.6-15.8 58.9-20.4-35.2-58.4-58.9-101.9-58.9s-81.6 23.7-101.9 58.9C5.8 159.3 0 139.2 0 117.7 0 52.7 52.7 0 117.7 0s117.7 52.7 117.7 117.7z"/>
      <path fill="#3085C0" d="M219.7 176.6c10 17.3 15.8 37.4 15.8 58.9 0 65-52.7 117.7-117.7 117.7S0 300.4 0 235.4c0-21.5 5.7-41.6 15.8-58.9 20.4 35.2 58.4 58.9 101.9 58.9s81.7-23.7 102-58.8z"/>
      <path fill="#53A4D9" d="M117.7 117.7c43.6 0 81.6 23.7 101.9 58.9-20.4 35.2-58.4 58.9-101.9 58.9s-81.6-23.7-101.9-58.9c20.4-35.2 58.4-58.9 101.9-58.9zm45.7 58.9c0-25.2-20.5-45.7-45.7-45.7S72 151.4 72 176.6s20.4 45.7 45.7 45.7 45.7-20.6 45.7-45.7z"/>
      <path fill="#E1EEEF" d="M117.7 130.9c25.2 0 45.7 20.5 45.7 45.7s-20.5 45.7-45.7 45.7S72 201.9 72 176.6s20.5-45.7 45.7-45.7zm15.8 45.7c0-8.8-7-15.8-15.8-15.8s-15.8 7-15.8 15.8 7 15.8 15.8 15.8 15.8-7.1 15.8-15.8z"/>
      <circle fill="#3085C0" cx="117.7" cy="176.6" r="15.8"/>
    </g>
  </g>
</svg>
